<?xml version="1.0" encoding="UTF-8"?>
<svg version="1.1" xmlns="http://www.w3.org/2000/svg" width="2560" height="409">
<path d="M0 0 C52.09875 -0.0928125 52.09875 -0.0928125 105.25 -0.1875 C116.18801758 -0.21481201 127.12603516 -0.24212402 138.39550781 -0.27026367 C151.82568359 -0.28381348 151.82568359 -0.28381348 158.12713623 -0.28633118 C162.49713782 -0.2891088 166.86702838 -0.3002816 171.23699951 -0.31672668 C176.83408194 -0.3375063 182.43100596 -0.34343652 188.02812338 -0.33921683 C190.06793531 -0.34009747 192.10775354 -0.34592541 194.14753199 -0.35764539 C210.71187037 -0.448296 227.35658276 0.63267499 243.25 5.6875 C244.065896 5.94023682 244.88179199 6.19297363 245.72241211 6.45336914 C278.57641891 17.09342371 304.88445528 41.4408035 320.56958008 71.80883789 C337.01391278 104.88697712 339.24535466 141.946581 328 177 C317.43845766 208.32208703 294.67169056 233.30511504 265.1953125 248.0859375 C238.65608675 260.63430639 208.73150626 263.37260666 179.76953125 263.1953125 C178.12089169 263.19235914 176.47225023 263.1903267 174.8236084 263.18920898 C168.81987635 263.17887145 162.81618486 263.15095071 156.8125 263.125 C143.344375 263.08375 129.87625 263.0425 116 263 C116 301.61 116 340.22 116 380 C77.72 380 39.44 380 0 380 C0 254.6 0 129.2 0 0 Z M116 92 C116 118.73 116 145.46 116 173 C126.8075 173.04125 137.615 173.0825 148.75 173.125 C152.13862305 173.14320801 155.52724609 173.16141602 159.01855469 173.18017578 C161.73632652 173.18602283 164.45410012 173.19111789 167.171875 173.1953125 C167.86114075 173.20053925 168.55040649 173.20576599 169.26055908 173.21115112 C184.47321428 173.32055193 198.00676495 172.46391587 209.8125 161.875 C219.27874935 151.67882298 220.47826963 140.147308 220.26953125 127.00390625 C219.86629952 116.31131305 215.46604966 108.54547572 208 101 C197.29908464 92.00667752 186.24428313 91.57192246 172.93359375 91.70703125 C171.47335148 91.71145053 170.01310444 91.71450586 168.55285645 91.71618652 C163.18099777 91.73181754 157.8092413 91.77370123 152.4375 91.8125 C140.413125 91.874375 128.38875 91.93625 116 92 Z " fill="#0055A8" transform="translate(10,10)"/>
<path d="M0 0 C1.94894181 1.84616864 3.84973586 3.7274351 5.75 5.625 C6.4925 6.35589844 7.235 7.08679688 8 7.83984375 C25.06785991 25.74109525 32.96966253 53.46047046 32.87025452 77.76220703 C32.87153615 78.93014722 32.87153615 78.93014722 32.87284368 80.12168217 C32.87447974 82.70874965 32.86900806 85.29575107 32.86352539 87.8828125 C32.86324309 89.74603779 32.8634021 91.60926318 32.8639679 93.4724884 C32.86425419 98.51525207 32.85838461 103.55799184 32.85139394 108.60074997 C32.84513242 113.87649158 32.84455439 119.15223377 32.84336853 124.42797852 C32.84026346 134.41147855 32.83206119 144.39496759 32.82201904 154.37846279 C32.80873956 167.87402207 32.80335134 181.36958437 32.79751682 194.86514854 C32.78812075 216.11844058 32.76819631 237.37170945 32.75 258.625 C-2.89 258.625 -38.53 258.625 -75.25 258.625 C-75.29898438 247.29800781 -75.34796875 235.97101563 -75.3984375 224.30078125 C-75.43383359 217.11392477 -75.4697198 209.92707623 -75.5078125 202.74023438 C-75.5681497 191.33945547 -75.62651766 179.93869145 -75.671875 168.5378418 C-75.70492312 160.2333121 -75.74482416 151.92884771 -75.79279006 143.6243903 C-75.81792822 139.23147754 -75.83974619 134.83860738 -75.85334396 130.44564247 C-75.8662804 126.30142849 -75.8884565 122.1573616 -75.91738319 118.01322937 C-75.92636932 116.50128977 -75.93212792 114.98932655 -75.93421364 113.47736168 C-75.82709341 92.66651198 -75.82709341 92.66651198 -85.00390625 74.59375 C-92.74619589 67.21120312 -102.81704146 64.20593787 -113.3671875 64.34765625 C-125.89998971 65.55338654 -134.79998398 71.0995253 -142.71484375 80.546875 C-149.26084117 89.40812342 -151.34650303 99.48046292 -151.40821838 110.35118103 C-151.4180072 111.66499756 -151.42779602 112.97881409 -151.43788147 114.33244324 C-151.44378418 115.77102625 -151.44959472 117.20960964 -151.45532227 118.64819336 C-151.46491145 120.17630268 -151.47492213 121.7044094 -151.48532104 123.23251343 C-151.51226353 127.36624793 -151.53333051 131.49999372 -151.55332303 135.63376689 C-151.57524862 139.95928023 -151.60260504 144.28475919 -151.62937927 148.61024475 C-151.67921752 156.79462282 -151.72418911 164.97902007 -151.76740164 173.16343552 C-151.8261014 184.22766622 -151.89234044 195.29185165 -151.95815182 206.35604191 C-152.06158772 223.77899739 -152.15496909 241.20199195 -152.25 258.625 C-186.9 258.625 -221.55 258.625 -257.25 258.625 C-257.25 168.865 -257.25 79.105 -257.25 -13.375 C-224.58 -13.375 -191.91 -13.375 -158.25 -13.375 C-156.25 6.625 -156.25 6.625 -156.25 13.625 C-155.4971875 13.01914063 -154.744375 12.41328125 -153.96875 11.7890625 C-111.36400379 -22.03288712 -45.33617416 -41.45062377 0 0 Z " fill="#0055A8" transform="translate(898.25,131.375)"/>
<path d="M0 0 C14.57258543 14.19346126 22.6355572 32.37984576 27 52 C27.25415334 53.04779869 27.25415334 53.04779869 27.51344109 54.11676502 C29.50617712 63.35675017 29.26629783 72.56555866 29.22705078 81.96557617 C29.22648581 83.86865228 29.22680489 85.77172883 29.22793579 87.67480469 C29.22850697 92.81245791 29.21679086 97.95001676 29.20278788 103.08764815 C29.19024118 108.46746953 29.18910692 113.84729333 29.18673706 119.22712708 C29.18053384 129.4017889 29.16413874 139.57640747 29.14403808 149.75105029 C29.11745118 163.50910281 29.10669708 177.26716724 29.09503365 191.02523899 C29.07625728 212.68352502 29.03640387 234.34171981 29 256 C-6.64 256 -42.28 256 -79 256 C-79.03738281 244.30046875 -79.07476563 232.6009375 -79.11328125 220.546875 C-79.1435631 213.1275924 -79.17459137 205.7083253 -79.20898438 198.2890625 C-79.26341566 186.51726705 -79.31483108 174.74551465 -79.34643555 162.97363281 C-79.36946979 154.39917617 -79.40292815 145.82483308 -79.44870156 137.25046659 C-79.47256078 132.71392483 -79.49133727 128.17749501 -79.49761391 123.64089203 C-79.50369796 119.36284017 -79.52381646 115.08507446 -79.55427551 110.80712891 C-79.56300286 109.24478397 -79.56678944 107.68240156 -79.56500816 106.12003326 C-79.55457666 92.73766842 -80.39443074 80.1464654 -90 70 C-98.06914381 63.7722378 -108.90400647 60.70152684 -119 62 C-130.42834179 64.46684939 -140.31212749 69.12372315 -147 79 C-151.44780529 86.6601091 -154.23623728 93.95501005 -154.2784729 102.91600037 C-154.2842653 103.57534972 -154.2900577 104.23469907 -154.29602563 104.9140287 C-154.3129086 107.1034626 -154.3158919 109.29268422 -154.31884766 111.48217773 C-154.32815394 113.05955007 -154.33832365 114.6369175 -154.34928894 116.21427917 C-154.37652407 120.48231323 -154.39171907 124.75031439 -154.40471697 129.01841235 C-154.42037595 133.4840793 -154.44715733 137.94967937 -154.4727478 142.41529846 C-154.51948664 150.86528993 -154.55625442 159.31529404 -154.58942068 167.76534849 C-154.63483373 179.18835523 -154.69568849 190.61127909 -154.75566864 202.03421688 C-154.84971757 220.02276966 -154.92316861 238.01134637 -155 256 C-189.65 256 -224.3 256 -260 256 C-260 166.24 -260 76.48 -260 -16 C-227.66 -16 -195.32 -16 -162 -16 C-161.00567715 -13.01703146 -160.71277619 -10.58098005 -160.46484375 -7.45703125 C-160.37783203 -6.38388672 -160.29082031 -5.31074219 -160.20117188 -4.20507812 C-160.11416016 -3.08552734 -160.02714844 -1.96597656 -159.9375 -0.8125 C-159.80118164 0.88422852 -159.80118164 0.88422852 -159.66210938 2.61523438 C-159.43806386 5.40990736 -159.21749856 8.20481111 -159 11 C-158.05253906 10.18208984 -158.05253906 10.18208984 -157.0859375 9.34765625 C-149.78807491 3.19599975 -142.19900319 -2.13216942 -134 -7 C-133.35820801 -7.38188477 -132.71641602 -7.76376953 -132.05517578 -8.15722656 C-91.22585378 -32.03531274 -36.3272683 -33.66511734 0 0 Z " fill="#0055A8" transform="translate(2099,134)"/>
<path d="M0 0 C1.01175293 0.18224121 2.02350586 0.36448242 3.06591797 0.55224609 C25.09015416 4.59999839 45.62045996 10.22387284 63 25 C64.22203125 25.92619141 64.22203125 25.92619141 65.46875 26.87109375 C83.83435355 42.31747328 88.6101735 68.85028287 90.79579735 91.41439438 C91.40648517 99.14689856 91.42345175 106.91706849 91.52072144 114.6694603 C91.56377639 118.09370087 91.61774245 121.51763433 91.67407227 124.94168091 C91.79232441 132.25265748 91.89660759 139.56380071 92 146.875 C92.55322746 186.92131975 92.55322746 186.92131975 93.9375 226.9453125 C93.97511444 227.80651577 94.01272888 228.66771904 94.05148315 229.55501938 C94.43639033 238.18339442 94.98298886 246.77311021 95.9375 255.35888672 C96.01141464 256.0520656 96.08532928 256.74524448 96.16148376 257.45942879 C96.72451346 262.14730182 97.86608775 266.08672173 100.09765625 270.23828125 C101.07034097 272.13733237 101.51403123 273.92961793 102 276 C88.77007009 276.13890765 75.54031312 276.24557464 62.30980301 276.31087303 C56.16656014 276.34221027 50.02381547 276.38472833 43.88085938 276.45263672 C37.95454755 276.51774155 32.02871545 276.553688 26.10207367 276.56926346 C23.83894037 276.58036559 21.57583388 276.60204536 19.31290436 276.63438034 C16.14714958 276.6778242 12.98338683 276.68393895 9.81738281 276.68115234 C8.87798859 276.702724 7.93859436 276.72429565 6.97073364 276.746521 C4.50219687 276.72294862 2.3818807 276.64928717 0 276 C-2.95699017 272.64773276 -4.50173248 269.2448692 -5.921875 265.0390625 C-6.22480469 264.15605469 -6.52773437 263.27304687 -6.83984375 262.36328125 C-7.29037109 261.00783203 -7.29037109 261.00783203 -7.75 259.625 C-8.06582031 258.69816406 -8.38164063 257.77132813 -8.70703125 256.81640625 C-9.47917024 254.54678559 -10.24322849 252.27478113 -11 250 C-11.60585937 250.64066406 -12.21171875 251.28132812 -12.8359375 251.94140625 C-33.81108879 273.59421628 -63.40902109 283.69552898 -93.20288086 284.35131836 C-120.74640999 284.552973 -148.04240538 279.05358201 -169 260 C-184.41167662 244.65371946 -192.16208238 223.63024535 -192.25 202 C-192.23901923 181.91178281 -185.5568882 163.36848773 -171.4375 148.875 C-160.00565103 137.68161338 -147.11490143 131.78899674 -132 127 C-130.85120361 126.6277832 -130.85120361 126.6277832 -129.67919922 126.24804688 C-112.01097231 120.64145911 -93.61371635 117.76030851 -75.42390442 114.3861084 C-42.31247502 110.69243098 -42.31247502 110.69243098 -15.5 94.8125 C-13.32990305 90.29635229 -13.04152997 85.88674492 -14 81 C-16.59531763 74.80501237 -19.86020983 70.00970106 -26 67 C-39.67222553 61.58037907 -53.95021778 61.40407288 -67.6484375 67.1015625 C-74.8176332 70.79334102 -79.03186437 75.96577446 -82.15234375 83.34375 C-83.77869894 88.44016257 -84.34419146 93.70833597 -85 99 C-103.87168009 99.17608514 -122.70536871 98.65578172 -141.56506348 98.07287598 C-145.57520072 97.94969347 -149.58545689 97.83050969 -153.59570312 97.7109375 C-161.39725348 97.47775744 -169.19866611 97.24032488 -177 97 C-182.51611713 81.33752877 -177.93113503 64.69032471 -171.25 50.125 C-167.97387496 43.33188079 -164.16842451 37.53212846 -159 32 C-158.26265625 31.17242187 -157.5253125 30.34484375 -156.765625 29.4921875 C-139.69471567 11.24974517 -115.98979247 4.05394888 -92 0 C-91.0507666 -0.16371094 -90.1015332 -0.32742187 -89.12353516 -0.49609375 C-60.36064124 -5.20797077 -28.65699215 -5.30798132 0 0 Z M-16.75 156.5625 C-29.1103225 161.96053641 -42.05044796 165.84638505 -54.96484375 169.67797852 C-76.2162713 175.09248089 -76.2162713 175.09248089 -92.1796875 188.90625 C-94.43143836 193.9278537 -94.49949926 198.73795353 -93 204 C-89.11725026 212.6008321 -83.11525107 216.85878003 -74.5625 220.203125 C-60.25935328 224.65105477 -45.25453968 220.80029334 -32.12109375 214.65234375 C-22.61879087 209.44421133 -15.62029957 201.21637569 -12 191 C-8.84874369 179.1954955 -7.14913482 166.02421362 -10 154 C-12.22607995 154 -14.79926638 155.68558571 -16.75 156.5625 Z " fill="#0055A8" transform="translate(1135,114)"/>
<path d="M0 0 C0.93463074 -0.00067474 1.86926147 -0.00134949 2.83221436 -0.00204468 C17.72201557 0.01499827 32.18176271 0.6408969 46.875 3.25 C47.89706543 3.42692383 48.91913086 3.60384766 49.97216797 3.78613281 C76.52951753 8.50798308 102.60478528 17.17185787 119.80859375 39.23828125 C132.74689183 58.09542268 136.8330637 81.67258227 137.14038086 104.16455078 C137.16504173 105.58946587 137.16504173 105.58946587 137.19020081 107.04316711 C137.22529797 109.09893929 137.25849863 111.15474455 137.28999138 113.2105751 C137.34095742 116.51757461 137.39762076 119.82443538 137.45570374 123.13131714 C137.61975386 132.53338193 137.77333034 141.93561189 137.92456055 151.33789062 C138.32416369 176.00502764 138.81425706 200.65600552 139.87890625 225.3046875 C139.92067427 226.27633976 139.96244228 227.24799202 140.005476 228.24908829 C140.10224325 248.05110716 140.10224325 248.05110716 143.8125 267.25 C144.15152344 268.260625 144.49054688 269.27125 144.83984375 270.3125 C145.35224609 271.7665625 145.35224609 271.7665625 145.875 273.25 C146.54364422 275.24933973 147.21057106 277.24925548 147.875 279.25 C134.77541336 279.36575876 121.67594803 279.45464711 108.57595444 279.50906086 C102.49332385 279.53517446 96.41104272 279.57060562 90.32861328 279.62719727 C84.46067105 279.68145274 78.59306532 279.71140725 72.72489166 279.72438622 C70.48411001 279.73363761 68.24334715 279.75170319 66.00270844 279.77865028 C62.86826014 279.81485367 59.73520906 279.81994886 56.60058594 279.81762695 C55.67054245 279.83560333 54.74049896 279.85357971 53.78227234 279.87210083 C47.47814112 279.82144154 47.47814112 279.82144154 44.32797241 276.83683777 C43.13103313 274.70583534 42.05902772 272.73505207 41.2421875 270.4375 C40.99339844 269.75429688 40.74460937 269.07109375 40.48828125 268.3671875 C40.24464844 267.66851562 40.00101563 266.96984375 39.75 266.25 C39.24776167 264.85403499 38.74516568 263.45819861 38.2421875 262.0625 C37.89365723 261.08216797 37.89365723 261.08216797 37.53808594 260.08203125 C36.70554505 257.78181518 35.80323066 255.51311476 34.875 253.25 C34.24335937 253.93964844 33.61171875 254.62929688 32.9609375 255.33984375 C13.1858835 276.11219875 -15.79987121 286.47341679 -44.19140625 287.53515625 C-56.76618921 287.80432063 -68.87097288 287.1406644 -81.125 284.25 C-81.84091309 284.08371094 -82.55682617 283.91742188 -83.29443359 283.74609375 C-100.04229814 279.70595667 -113.11190839 272.58973157 -125.125 260.25 C-125.81335938 259.5590625 -126.50171875 258.868125 -127.2109375 258.15625 C-140.89884552 243.57175412 -146.97760213 221.34148262 -146.41015625 201.62890625 C-144.65205742 180.79663928 -137.7270321 162.72561968 -121.70654297 148.55664062 C-95.1985008 126.65620195 -57.1165079 122.36614375 -24.27093506 116.61575317 C-13.29393467 114.68870836 -2.41894767 112.55898991 8.375 109.75 C9.41261475 109.48960937 10.45022949 109.22921875 11.51928711 108.9609375 C19.00106682 106.91972022 25.85734762 103.92776384 30.875 97.8125 C33.21886862 91.80633667 33.13706005 87.31851496 30.87109375 81.38671875 C27.46976004 74.09052447 22.18111398 71.0805851 14.875 68.25 C2.71876218 64.56107877 -10.30634529 65.46016492 -21.9609375 70.46875 C-29.22991836 74.39792884 -33.54443754 79.41497233 -36.1171875 87.28515625 C-37.40517159 92.23469511 -38.29128429 97.20708996 -39.125 102.25 C-57.99668009 102.42608514 -76.83036871 101.90578172 -95.69006348 101.32287598 C-99.70020072 101.19969347 -103.71045689 101.08050969 -107.72070312 100.9609375 C-115.52225348 100.72775744 -123.32366611 100.49032488 -131.125 100.25 C-135.89899881 81.67428627 -131.04067335 63.81974356 -122 47.1875 C-108.0661793 24.21799207 -85.4044805 12.75562854 -60.25 6 C-50.65769379 3.74923731 -40.90475488 2.3986794 -31.125 1.25 C-30.34092773 1.15283691 -29.55685547 1.05567383 -28.74902344 0.95556641 C-19.20059479 -0.08198232 -9.59312469 0.00622642 0 0 Z M27.4296875 160.48510742 C14.73969582 165.92573195 1.61853619 169.9219729 -11.56958008 173.94824219 C-31.07419048 179.27292154 -31.07419048 179.27292154 -46.0625 191.9375 C-48.04509615 198.11853507 -48.23826668 204.55355845 -45.5625 210.5625 C-41.08650415 218.18884833 -34.3416557 221.6343646 -26.125 224.25 C-10.72613258 228.0211512 4.96564943 223.03432098 18.24121094 215.27441406 C27.27879523 209.60769205 32.50965123 199.81036198 35.33203125 189.76953125 C36.76505858 183.11987204 37.02954209 176.70756285 37 169.9375 C37.00386719 169.03193359 37.00773437 168.12636719 37.01171875 167.19335938 C37.01042969 166.32904297 37.00914062 165.46472656 37.0078125 164.57421875 C37.00612061 163.3999231 37.00612061 163.3999231 37.00439453 162.2019043 C36.99615443 160.16974955 36.99615443 160.16974955 35.875 158.25 C32.57504764 158.25 30.4247347 159.19968687 27.4296875 160.48510742 Z " fill="#0055A8" transform="translate(481.125,110.75)"/>
<path d="M0 0 C24.06081576 -0.5843341 49.17770038 3.31118464 71.234375 13.12109375 C71.8948584 13.4135498 72.5553418 13.70600586 73.23583984 14.00732422 C87.10458794 20.27330488 98.85236727 28.54033283 109.9140625 38.95703125 C112.30045737 41.24638035 112.30045737 41.24638035 115.359375 43.55859375 C119.89631985 47.60239242 123.50651067 52.33721324 127.234375 57.12109375 C127.90726563 57.96671875 128.58015625 58.81234375 129.2734375 59.68359375 C142.44172467 76.89155467 149.86642796 96.84729876 153.234375 118.12109375 C153.50894531 119.83039063 153.50894531 119.83039063 153.7890625 121.57421875 C158.39831286 160.31420211 149.81414598 202.23936034 125.52734375 233.33984375 C104.6522191 258.66026751 79.64488557 276.07124378 47.671875 283.87109375 C46.85823486 284.06993164 46.04459473 284.26876953 45.20629883 284.47363281 C31.33460459 287.6635343 17.71328863 288.49779386 3.546875 288.43359375 C2.29238052 288.43085953 2.29238052 288.43085953 1.01254272 288.42807007 C-11.46511843 288.38231194 -23.56033339 287.92863951 -35.765625 285.12109375 C-36.54808594 284.9494873 -37.33054687 284.77788086 -38.13671875 284.60107422 C-72.73740579 276.85744046 -104.78182214 256.69351796 -124.52734375 226.73828125 C-146.68278626 191.54965464 -153.80829964 148.84043541 -145.24414062 108.19824219 C-139.73969597 84.12297697 -128.41552053 64.17879524 -111.765625 46.12109375 C-110.75242187 45.00154297 -110.75242187 45.00154297 -109.71875 43.859375 C-80.74474251 13.3376107 -40.9057674 1.79107174 0 0 Z M-22.765625 81.12109375 C-23.43078125 81.74628906 -24.0959375 82.37148437 -24.78125 83.015625 C-42.86476009 101.61679282 -43.23152554 128.78438299 -42.9765625 153.109375 C-42.68579488 171.6002375 -38.8569687 192.92541713 -25.9609375 207.10546875 C-17.7173516 214.85245309 -8.02770094 218.53544246 3.109375 219.43359375 C15.34301008 219.04445228 25.90009072 213.43644875 34.16796875 204.6796875 C50.26209319 184.75217992 51.04654481 153.52989737 48.99560547 129.30029297 C46.85309399 110.35653825 41.68011902 92.39102139 27.234375 79.12109375 C12.10203504 68.05059241 -8.84600268 67.88555544 -22.765625 81.12109375 Z " fill="#0055A8" transform="translate(1670.765625,109.87890625)"/>
<path d="M0 0 C0.89799316 0.13921875 1.79598633 0.2784375 2.72119141 0.421875 C24.44110541 3.88999655 45.20681467 11.39869629 62 26 C62.90105469 26.75990234 62.90105469 26.75990234 63.8203125 27.53515625 C76.55941237 39.16029895 82.55146172 57.17965998 84 74 C84 77.3 84 80.6 84 84 C52.32 84 20.64 84 -12 84 C-13.32 79.71 -14.64 75.42 -16 71 C-21.46243059 63.02485134 -27.71514938 60.059611 -37 58 C-48.77734366 57.06954192 -61.00721768 56.58024146 -70.5 64.4375 C-74.40499029 68.01440709 -75.8688784 70.62322321 -76.375 75.9375 C-76.26139683 78.72077769 -75.93075009 80.1523498 -74.75 82.75 C-66.10750043 89.82113601 -52.52354805 90.46317567 -41.86157227 92.20584106 C37.86243949 105.33813711 37.86243949 105.33813711 68 130 C68.87398437 130.69738281 69.74796875 131.39476562 70.6484375 132.11328125 C85.08654054 144.26350027 92.54412456 160.53458213 95 179 C96.06442925 192.45987958 95.34681381 205.18833826 91 218 C90.649375 219.051875 90.29875 220.10375 89.9375 221.1875 C82.69057403 240.51263593 66.94541586 256.29711165 49 266 C48.2977832 266.37995117 47.59556641 266.75990234 46.87207031 267.15136719 C-0.23994984 292.07368749 -60.49329759 290.80104627 -110.5625 276.1875 C-124.86883395 271.77242511 -137.52075571 265.69027115 -149 256 C-149.88300781 255.25621094 -150.76601562 254.51242187 -151.67578125 253.74609375 C-168.40457455 239.14965043 -179.21035172 221.31718626 -182 199 C-182 194.38 -182 189.76 -182 185 C-149 185 -116 185 -82 185 C-81.01 189.95 -80.02 194.9 -79 200 C-77.11084742 204.53616574 -77.11084742 204.53616574 -75 208 C-74.66613281 208.70769531 -74.33226562 209.41539062 -73.98828125 210.14453125 C-72.69296032 212.57645789 -71.50064675 212.88860144 -69 214 C-68.195625 214.61875 -67.39125 215.2375 -66.5625 215.875 C-55.67756507 223.05959725 -41.19465589 223.83242553 -28.6875 221.33984375 C-21.15106804 218.92190516 -15.5686545 214.61217039 -11 208.1875 C-9.15095135 202.29365741 -9.0652353 196.47833187 -11.375 190.6875 C-15.00504815 184.60141052 -22.36392465 182.26396981 -28.9519043 180.57397461 C-30.67695529 180.18951772 -32.40546811 179.82034233 -34.13671875 179.46484375 C-35.08109299 179.26068344 -36.02546722 179.05652313 -36.99845886 178.84617615 C-46.87718205 176.74311091 -56.81040873 174.91914428 -66.74804688 173.11953735 C-144.24556383 159.03251759 -144.24556383 159.03251759 -164.375 132.5625 C-177.02798587 114.02928833 -182.08213737 91.99668411 -177.9375 69.875 C-174.64127736 56.62878436 -168.8640825 45.36809649 -160 35 C-159.47148438 34.3709375 -158.94296875 33.741875 -158.3984375 33.09375 C-139.36285363 12.39865369 -110.92498721 3.28741835 -84 -1 C-83.2678125 -1.11859375 -82.535625 -1.2371875 -81.78125 -1.359375 C-55.23154449 -5.39954758 -26.39974021 -4.26736787 0 0 Z " fill="#0055A8" transform="translate(1422,113)"/>
<path d="M0 0 C0.75870895 -0.00705963 1.51741791 -0.01411926 2.29911804 -0.02139282 C33.97421692 -0.24925522 33.97421692 -0.24925522 47.79296875 3.203125 C49.05052979 3.50911621 49.05052979 3.50911621 50.33349609 3.82128906 C82.79732877 11.9180954 111.95526856 28.92514316 129.79296875 58.203125 C139.4804146 74.34025703 145.16650921 91.21480132 142.79296875 110.203125 C112.10296875 110.203125 81.41296875 110.203125 49.79296875 110.203125 C48.80296875 107.233125 47.81296875 104.263125 46.79296875 101.203125 C41.59600377 90.02823035 35.52513757 83.25716895 24.79296875 77.203125 C24.15617187 76.83703125 23.519375 76.4709375 22.86328125 76.09375 C15.34926379 72.55381289 5.36031092 73.10121378 -2.55859375 75.01171875 C-12.99194328 78.9073751 -22.31286121 86.95664727 -27.1159668 97.12792969 C-27.9322956 99.19701021 -28.65143579 101.27303322 -29.33203125 103.390625 C-29.70932373 104.55259399 -29.70932373 104.55259399 -30.09423828 105.73803711 C-37.77417019 130.62688968 -37.5517926 158.7708217 -28.20703125 183.203125 C-27.88347656 184.05777344 -27.55992187 184.91242188 -27.2265625 185.79296875 C-21.76459844 198.27464113 -11.31719015 207.348827 1.04296875 212.578125 C12.02567774 214.4085765 22.58348503 214.04288277 32.0390625 207.6953125 C45.75499129 196.54625885 46.77409812 183.36352534 48.79296875 166.203125 C81.46296875 166.203125 114.13296875 166.203125 147.79296875 166.203125 C147.79296875 198.00074758 141.69553933 222.15887037 119.23779297 244.73925781 C117.89881053 246.09588821 116.59608319 247.4880444 115.296875 248.8828125 C89.13265145 276.46480186 50.74266997 286.935689 13.79296875 288.203125 C-30.01430176 288.83718697 -67.2551487 274.22249648 -98.72216797 243.68603516 C-120.76969192 221.66751157 -134.74749277 192.09760821 -138.20703125 161.203125 C-138.31789063 160.23375 -138.42875 159.264375 -138.54296875 158.265625 C-142.36280758 119.44780343 -131.55912816 79.82130323 -106.921875 49.390625 C-80.78147136 18.1873795 -40.6958144 0.25305497 0 0 Z " fill="#0055A8" transform="translate(2402.20703125,110.796875)"/>
<path d="M0 0 C33.99 0 67.98 0 103 0 C103.02202611 34.50677727 103.04049769 69.01354774 103.05106533 103.52032992 C103.05231611 107.58980655 103.05361042 111.65928316 103.05493164 115.72875977 C103.05519395 116.53895406 103.05545626 117.34914835 103.05572652 118.18389399 C103.06008343 131.31996923 103.06797109 144.45604012 103.0771528 157.59211277 C103.08648876 171.06073513 103.09205549 184.5293552 103.09408849 197.99798065 C103.09546384 206.3156418 103.09981506 214.63329064 103.10791647 222.95094801 C103.11318322 228.64680407 103.11480446 234.34265372 103.11350138 240.03851204 C103.11285788 243.32970368 103.1144152 246.62086903 103.11920547 249.91205788 C103.12413535 253.47190202 103.12300091 257.03169225 103.12025452 260.59153748 C103.12316736 261.64307162 103.1260802 262.69460577 103.12908131 263.77800459 C103.12609474 265.19699146 103.12609474 265.19699146 103.12304783 266.64464474 C103.12342755 267.46749869 103.12380727 268.29035265 103.1241985 269.13814157 C103 271 103 271 102 272 C68.34 272 34.68 272 0 272 C0 182.24 0 92.48 0 0 Z " fill="#0056A8" transform="translate(2148,118)"/>
<path d="M0 0 C33.99 0 67.98 0 103 0 C103 23.76 103 47.52 103 72 C69.01 72 35.02 72 0 72 C0 48.24 0 24.48 0 0 Z " fill="#0056A8" transform="translate(2148,10)"/>
</svg>
