<?xml version="1.0" encoding="UTF-8"?>
<svg version="1.1" xmlns="http://www.w3.org/2000/svg" width="550" height="182">
<path d="M0 0 C1.14597656 -0.01224609 2.29195313 -0.02449219 3.47265625 -0.03710938 C4.57996094 -0.03904297 5.68726563 -0.04097656 6.828125 -0.04296875 C7.84293945 -0.04707764 8.85775391 -0.05118652 9.90332031 -0.05541992 C14.22636648 0.31348496 16.91326001 1.3959892 20.0625 4.375 C22.26608491 8.04764152 22.40616816 9.95886074 21.75 14.1875 C20.28859084 16.78162768 18.64640362 18.86440556 16.75 21.1875 C17.3275 22.10273437 17.905 23.01796875 18.5 23.9609375 C19.2502341 25.16131205 20.00022133 26.36184092 20.75 27.5625 C21.1315625 28.16578125 21.513125 28.7690625 21.90625 29.390625 C24.75 33.9609375 24.75 33.9609375 24.75 36.1875 C23.35554251 36.38497219 21.95931848 36.56998587 20.5625 36.75 C19.39654297 36.90662109 19.39654297 36.90662109 18.20703125 37.06640625 C15.43136204 37.20320394 13.39559041 37.0650617 10.75 36.1875 C8.984375 34.26171875 8.984375 34.26171875 7.5 31.875 C6.99984375 31.09511719 6.4996875 30.31523438 5.984375 29.51171875 C4.8464157 27.36904222 4.20554403 25.55741359 3.75 23.1875 C2.76 23.1875 1.77 23.1875 0.75 23.1875 C0.42 27.4775 0.09 31.7675 -0.25 36.1875 C-9.875 37.3125 -9.875 37.3125 -13.25 36.1875 C-13.27465098 31.22127651 -13.29283649 26.25508834 -13.30493164 21.28881836 C-13.3099719 19.59805684 -13.31680405 17.90729971 -13.32543945 16.21655273 C-13.33751857 13.79149293 -13.34323123 11.36649056 -13.34765625 8.94140625 C-13.35281754 8.18098526 -13.35797882 7.42056427 -13.36329651 6.63710022 C-13.36349238 4.8201743 -13.31197277 3.00336873 -13.25 1.1875 C-10.68079795 -1.38170205 -3.45481122 0.00191721 0 0 Z M-0.25 9.1875 C-0.25 10.8375 -0.25 12.4875 -0.25 14.1875 C2.39 14.1875 5.03 14.1875 7.75 14.1875 C8.34070014 12.24146726 8.34070014 12.24146726 8.75 10.1875 C7.76732141 8.98188816 7.76732141 8.98188816 5.90234375 9.08984375 C3.8515625 9.12239583 1.80078125 9.15494792 -0.25 9.1875 Z " fill="#DE6D2B" transform="translate(271.25,71.8125)"/>
<path d="M0 0 C1.29550781 -0.02578125 2.59101563 -0.0515625 3.92578125 -0.078125 C8.59985749 0.32958258 11.88157518 1.56418419 15.33203125 4.78515625 C20.48266064 11.52059468 20.34455504 16.84908193 19.6875 25.25 C18.46141792 29.67423595 16.01815715 32.28250714 12.125 34.625 C5.59680004 37.71105816 -0.84820775 38.49270768 -7.89453125 36.53125 C-12.52129969 34.62836679 -15.73492974 32.68342084 -18.3125 28.25 C-20.6863699 22.48488739 -20.68202718 17.25408656 -19.3125 11.25 C-14.85667806 2.65662911 -9.34174463 0.11088124 0 0 Z M-5.3125 11.25 C-6.60254296 13.83008592 -6.51660224 15.80741574 -6.5625 18.6875 C-6.58828125 19.65558594 -6.6140625 20.62367187 -6.640625 21.62109375 C-6.52214172 24.26028912 -6.52214172 24.26028912 -5.015625 26.07421875 C-2.16637625 28.04124598 0.34996467 27.60759307 3.6875 27.25 C5.49257702 26.13816402 5.49257702 26.13816402 6.6875 24.25 C7.12560344 21.61292852 7.12560344 21.61292852 7 18.75 C6.99613281 17.7909375 6.99226563 16.831875 6.98828125 15.84375 C6.85967748 13.0151738 6.85967748 13.0151738 4.6875 10.25 C0.69868338 9.12272574 -1.84982826 8.81330507 -5.3125 11.25 Z " fill="#DB6E2F" transform="translate(233.3125,71.75)"/>
<path d="M0 0 C1.29349365 0.00523682 2.5869873 0.01047363 3.91967773 0.01586914 C4.9496714 0.01799156 4.9496714 0.01799156 6.00047302 0.02015686 C8.20144949 0.0257706 10.40232557 0.03832532 12.60327148 0.05102539 C14.09220231 0.05603863 15.58113473 0.06060184 17.07006836 0.06469727 C20.72700223 0.07574446 24.38387707 0.09301826 28.04077148 0.11352539 C29.40700823 2.84599887 29.16919748 5.09551441 29.04077148 8.11352539 C28.04077148 9.11352539 28.04077148 9.11352539 26.27490234 9.22705078 C25.5260376 9.22181396 24.77717285 9.21657715 24.00561523 9.21118164 C23.19672852 9.20795898 22.3878418 9.20473633 21.55444336 9.20141602 C20.70430664 9.19303711 19.85416992 9.1846582 18.97827148 9.17602539 C18.12426758 9.17151367 17.27026367 9.16700195 16.39038086 9.16235352 C14.27381485 9.15052912 12.15728463 9.13259308 10.04077148 9.11352539 C10.04077148 10.43352539 10.04077148 11.75352539 10.04077148 13.11352539 C15.65077148 13.11352539 21.26077148 13.11352539 27.04077148 13.11352539 C27.04077148 15.75352539 27.04077148 18.39352539 27.04077148 21.11352539 C26.04077148 22.11352539 26.04077148 22.11352539 22.44311523 22.21118164 C20.95480281 22.20450759 19.46650716 22.19254722 17.97827148 22.17602539 C17.2196582 22.17151367 16.46104492 22.16700195 15.67944336 22.16235352 C13.79985277 22.15053219 11.9203025 22.13259617 10.04077148 22.11352539 C10.04077148 23.76352539 10.04077148 25.41352539 10.04077148 27.11352539 C16.31077148 27.11352539 22.58077148 27.11352539 29.04077148 27.11352539 C29.04077148 30.08352539 29.04077148 33.05352539 29.04077148 36.11352539 C24.66616741 36.31114887 20.29108474 36.49483911 15.91577148 36.67602539 C14.05952148 36.76013672 14.05952148 36.76013672 12.16577148 36.84594727 C10.3675293 36.91845703 10.3675293 36.91845703 8.53295898 36.99243164 C6.88336182 37.06312866 6.88336182 37.06312866 5.20043945 37.13525391 C2.03661884 37.11349683 -0.85880894 36.72012922 -3.95922852 36.11352539 C-3.98387949 31.1473019 -4.002065 26.18111373 -4.01416016 21.21484375 C-4.01920041 19.52408224 -4.02603256 17.8333251 -4.03466797 16.14257812 C-4.04674708 13.71751832 -4.05245975 11.29251595 -4.05688477 8.86743164 C-4.06204605 8.10701065 -4.06720734 7.34658966 -4.07252502 6.56312561 C-4.07272089 4.74619969 -4.02120128 2.92939412 -3.95922852 1.11352539 C-2.95922852 0.11352539 -2.95922852 0.11352539 0 0 Z " fill="#E06D2A" transform="translate(338.959228515625,71.886474609375)"/>
<path d="M0 0 C4.44919531 -0.53469558 8.5747721 -0.80315524 13 0 C15.86914109 2.61433282 17.46216008 5.46086155 19 9 C19.28230469 8.3503125 19.56460937 7.700625 19.85546875 7.03125 C21.35169137 4.18798825 22.61514155 2.17305929 25 0 C29.4252279 -0.80315524 33.55080469 -0.53469558 38 0 C38 4.59467265 34.83679342 7.56972601 32.11132812 11.0859375 C30.29407037 13.55855278 29.02493206 15.34553353 28.90625 18.4609375 C30.47484196 22.10231168 32.68313313 25.09496608 35.0625 28.25 C40 34.90518417 40 34.90518417 40 36 C37.75165504 36.13526139 35.50097486 36.23210804 33.25 36.3125 C31.99703125 36.37050781 30.7440625 36.42851563 29.453125 36.48828125 C26 36 26 36 23.625 33.65625 C22.09169581 31.14988738 20.95167593 28.77572145 20 26 C19.34 26 18.68 26 18 26 C17.7525 26.721875 17.505 27.44375 17.25 28.1875 C15.77053471 31.51629691 14.73117214 33.54194508 12 36 C6.59362996 37.39664559 3.04130584 37.52065292 -2 35 C1.96 29.39 5.92 23.78 10 18 C8.3603125 15.40125 8.3603125 15.40125 6.6875 12.75 C6.07261719 11.77546875 5.45773437 10.8009375 4.82421875 9.796875 C3.0939594 7.04760742 3.0939594 7.04760742 1.26953125 4.828125 C0 3 0 3 0 0 Z " fill="#DF6D2A" transform="translate(371,72)"/>
<path d="M0 0 C3.96 0 7.92 0 12 0 C15.20073637 6.8587208 17.7063174 13.78954032 20 21 C22.83214207 14.0552261 25.46596996 7.05908368 28 0 C31.96 0 35.92 0 40 0 C41.35323094 4.05969282 40.1925143 5.5865071 38.54296875 9.49609375 C38.27994461 10.12604752 38.01692047 10.75600128 37.7459259 11.40504456 C36.90200194 13.41973314 36.04480318 15.42847356 35.1875 17.4375 C34.62090027 18.78675504 34.05513517 20.1363609 33.49023438 21.48632812 C28.37818089 33.65200112 28.37818089 33.65200112 27 36 C23.11229443 37.33292763 19.07196161 37.30162679 15 37 C11.52794137 34.55734287 10.35290757 30.57905403 8.828125 26.77734375 C8.54144958 26.0760585 8.25477417 25.37477325 7.95941162 24.65223694 C7.35735936 23.17357544 6.75915176 21.69334345 6.16455078 20.21166992 C5.25007921 17.93769696 4.31928862 15.67089838 3.38671875 13.40429688 C2.80369709 11.96654706 2.22163229 10.52840877 1.640625 9.08984375 C1.22046112 8.06950294 1.22046112 8.06950294 0.79180908 7.02854919 C0.13472566 5.37489804 -0.44059488 3.68919705 -1 2 C-0.67 1.34 -0.34 0.68 0 0 Z " fill="#DF6F2B" transform="translate(173,72)"/>
<path d="M0 0 C-3.67201103 15.84357205 -8.41058721 31.40422336 -13 47 C-13.66 47 -14.32 47 -15 47 C-19.15055052 34.9605498 -23.17265535 22.90367927 -26.5625 10.625 C-26.82562988 9.6870459 -27.08875977 8.7490918 -27.35986328 7.78271484 C-27.59302246 6.91855957 -27.82618164 6.0544043 -28.06640625 5.1640625 C-28.27209229 4.40561035 -28.47777832 3.6471582 -28.68969727 2.86572266 C-29 1 -29 1 -28 -1 C-18.31122401 -5.05784529 -9.21338171 -4.97657114 0 0 Z " fill="#E26C26" transform="translate(157,66)"/>
<path d="M0 0 C0.75728394 0.00202423 1.51456787 0.00404846 2.2947998 0.00613403 C3.06787476 0.00517731 3.84094971 0.00422058 4.63745117 0.00323486 C6.27502524 0.00255313 7.91260199 0.00440697 9.5501709 0.00857544 C12.06536901 0.01392382 14.58038854 0.00863027 17.09558105 0.00222778 C18.68282103 0.00288857 20.2700609 0.00416973 21.8572998 0.00613403 C22.99322571 0.00309769 22.99322571 0.00309769 24.15209961 0 C29.46109849 0.02399522 29.46109849 0.02399522 30.5760498 1.13894653 C30.71798318 4.14225671 30.61841359 7.13111787 30.5760498 10.13894653 C26.6160498 10.13894653 22.6560498 10.13894653 18.5760498 10.13894653 C18.5760498 18.71894653 18.5760498 27.29894653 18.5760498 36.13894653 C7.5760498 37.13894653 7.5760498 37.13894653 5.5760498 36.13894653 C5.2460498 27.88894653 4.9160498 19.63894653 4.5760498 11.13894653 C1.9360498 11.13894653 -0.7039502 11.13894653 -3.4239502 11.13894653 C-4.4139502 10.47894653 -5.4039502 9.81894653 -6.4239502 9.13894653 C-6.89509757 6.39619573 -6.60200804 3.94335756 -6.4239502 1.13894653 C-4.66322436 -0.6217793 -2.34498729 0.0105987 0 0 Z " fill="#E16D27" transform="translate(301.4239501953125,71.86105346679688)"/>
<path d="M0 0 C4.12678907 1.73896143 5.35496067 3.61384242 7.171875 7.59375 C9.5171118 14.40821165 9.75002982 21.15617544 7.0625 27.875 C3.1792603 35.64147939 -2.01019109 40.48301356 -10 44 C-12.76851893 44.67426832 -15.1345561 44.89387245 -18 45 C-18.33 44.34 -18.66 43.68 -19 43 C-18.23071289 40.76367187 -18.23071289 40.76367187 -16.97265625 37.96875 C-16.5135083 36.93806396 -16.05436035 35.90737793 -15.58129883 34.84545898 C-15.08009521 33.74145752 -14.5788916 32.63745605 -14.0625 31.5 C-13.56194092 30.38117432 -13.06138184 29.26234863 -12.5456543 28.10961914 C-11.52511358 25.82964618 -10.50142679 23.55107884 -9.47460938 21.27392578 C-7.75612971 17.45855951 -6.05790138 13.63449245 -4.36303711 9.80859375 C-2.91348864 6.5369194 -1.45681591 3.26844371 0 0 Z " fill="#E06C29" transform="translate(162,72)"/>
<path d="M0 0 C3.18663659 2.6491102 4.39387975 5.7715905 5.99609375 9.5390625 C6.2709108 10.17935394 6.54572784 10.81964539 6.82887268 11.4793396 C7.70521174 13.5250682 8.57157363 15.57484517 9.4375 17.625 C10.01560005 18.98075719 10.59436968 20.33622909 11.17382812 21.69140625 C12.01723512 23.66408012 12.85966209 25.63711834 13.69760132 27.61212158 C15.22421459 31.20797353 16.79308536 34.77994805 18.41015625 38.3359375 C20 42 20 42 20 44 C15.46032019 45.5132266 12.26844282 43.88476696 8 42 C1.23395424 38.2737719 -2.80412961 32.97783465 -6 26 C-7.85820349 18.48835315 -7.13475788 12.01713584 -4 5 C-1.8125 1.9375 -1.8125 1.9375 0 0 Z " fill="#DE6D2B" transform="translate(122,72)"/>
<path d="M0 0 C2.13093906 1.06546953 3.36587557 2.29159719 5 4 C4.67 4.99 4.34 5.98 4 7 C3.34 7 2.68 7 2 7 C2.33 7.99 2.66 8.98 3 10 C3.40389002 16.95066551 3.4430337 23.43434692 1 30 C-3.8 27.53846154 -3.8 27.53846154 -4.8125 24.8125 C-4.9053125 23.9153125 -4.9053125 23.9153125 -5 23 C-5.66 23 -6.32 23 -7 23 C-7 22.34 -7 21.68 -7 21 C-7.66 21 -8.32 21 -9 21 C-10.19754358 14.14134131 -9.87756649 9.38192964 -7 3 C-6 2 -6 2 -2.9375 1.9375 C-1.4834375 1.9684375 -1.4834375 1.9684375 0 2 C0 1.34 0 0.68 0 0 Z " fill="#E26C28" transform="translate(223,76)"/>
<path d="M0 0 C1.29349365 0.00523682 2.5869873 0.01047363 3.91967773 0.01586914 C4.9496714 0.01799156 4.9496714 0.01799156 6.00047302 0.02015686 C8.20144949 0.0257706 10.40232557 0.03832532 12.60327148 0.05102539 C14.09220231 0.05603863 15.58113473 0.06060184 17.07006836 0.06469727 C20.72700223 0.07574446 24.38387707 0.09301826 28.04077148 0.11352539 C27.71077148 0.77352539 27.38077148 1.43352539 27.04077148 2.11352539 C17.47077148 1.78352539 7.90077148 1.45352539 -1.95922852 1.11352539 C-1.95922852 12.33352539 -1.95922852 23.55352539 -1.95922852 35.11352539 C7.94077148 35.11352539 17.84077148 35.11352539 28.04077148 35.11352539 C28.04077148 32.80352539 28.04077148 30.49352539 28.04077148 28.11352539 C21.77077148 28.11352539 15.50077148 28.11352539 9.04077148 28.11352539 C8.71077148 25.80352539 8.38077148 23.49352539 8.04077148 21.11352539 C10.16002753 18.99426935 14.66038078 19.69521522 17.60327148 19.55102539 C18.40958008 19.5078418 19.21588867 19.4646582 20.04663086 19.42016602 C22.04445953 19.31377277 24.04259218 19.21311651 26.04077148 19.11352539 C26.04077148 17.46352539 26.04077148 15.81352539 26.04077148 14.11352539 C20.76077148 14.11352539 15.48077148 14.11352539 10.04077148 14.11352539 C10.04077148 13.78352539 10.04077148 13.45352539 10.04077148 13.11352539 C15.65077148 13.11352539 21.26077148 13.11352539 27.04077148 13.11352539 C27.04077148 15.75352539 27.04077148 18.39352539 27.04077148 21.11352539 C26.04077148 22.11352539 26.04077148 22.11352539 22.44311523 22.21118164 C20.95480281 22.20450759 19.46650716 22.19254722 17.97827148 22.17602539 C17.2196582 22.17151367 16.46104492 22.16700195 15.67944336 22.16235352 C13.79985277 22.15053219 11.9203025 22.13259617 10.04077148 22.11352539 C10.04077148 23.76352539 10.04077148 25.41352539 10.04077148 27.11352539 C16.31077148 27.11352539 22.58077148 27.11352539 29.04077148 27.11352539 C29.04077148 30.08352539 29.04077148 33.05352539 29.04077148 36.11352539 C24.66616741 36.31114887 20.29108474 36.49483911 15.91577148 36.67602539 C14.05952148 36.76013672 14.05952148 36.76013672 12.16577148 36.84594727 C10.3675293 36.91845703 10.3675293 36.91845703 8.53295898 36.99243164 C6.88336182 37.06312866 6.88336182 37.06312866 5.20043945 37.13525391 C2.03661884 37.11349683 -0.85880894 36.72012922 -3.95922852 36.11352539 C-3.98387949 31.1473019 -4.002065 26.18111373 -4.01416016 21.21484375 C-4.01920041 19.52408224 -4.02603256 17.8333251 -4.03466797 16.14257812 C-4.04674708 13.71751832 -4.05245975 11.29251595 -4.05688477 8.86743164 C-4.06204605 8.10701065 -4.06720734 7.34658966 -4.07252502 6.56312561 C-4.07272089 4.74619969 -4.02120128 2.92939412 -3.95922852 1.11352539 C-2.95922852 0.11352539 -2.95922852 0.11352539 0 0 Z " fill="#CA7341" transform="translate(338.959228515625,71.886474609375)"/>
<path d="M0 0 C1.875 0.30859375 1.875 0.30859375 3.875 1.30859375 C5.50062492 4.55984359 5.41657729 7.75495647 4.875 11.30859375 C3.35089664 13.7952887 2.2223053 14.18063916 -0.5 15.18359375 C-3.91637035 15.34627805 -5.42513904 14.33348947 -8.125 12.30859375 C-9.52957737 9.49943901 -9.37395157 7.42048841 -9.125 4.30859375 C-7.22735706 -0.19830824 -4.46860694 -0.27107358 0 0 Z M2.875 5.30859375 C2.545 6.62859375 2.215 7.94859375 1.875 9.30859375 C2.535 9.30859375 3.195 9.30859375 3.875 9.30859375 C3.545 7.98859375 3.215 6.66859375 2.875 5.30859375 Z M-7.125 6.30859375 C-6.125 9.30859375 -6.125 9.30859375 -6.125 9.30859375 Z M-2.125 9.30859375 C-2.455 10.29859375 -2.785 11.28859375 -3.125 12.30859375 C-1.805 11.97859375 -0.485 11.64859375 0.875 11.30859375 C-0.115 10.64859375 -1.105 9.98859375 -2.125 9.30859375 Z " fill="#D5A584" transform="translate(421.125,65.69140625)"/>
<path d="M0 0 C1.65322266 0.01740234 1.65322266 0.01740234 3.33984375 0.03515625 C4.99693359 0.04869141 4.99693359 0.04869141 6.6875 0.0625 C7.54214844 0.07410156 8.39679688 0.08570312 9.27734375 0.09765625 C12.15246895 6.00143276 14.11540223 11.63053437 15.27734375 18.09765625 C13.27734375 17.09765625 13.27734375 17.09765625 12.20703125 14.4453125 C11.85898438 13.36121094 11.5109375 12.27710937 11.15234375 11.16015625 C10.79914063 10.07863281 10.4459375 8.99710938 10.08203125 7.8828125 C9.27734375 5.09765625 9.27734375 5.09765625 9.27734375 3.09765625 C8.28734375 3.09765625 7.29734375 3.09765625 6.27734375 3.09765625 C6.48359375 3.81953125 6.68984375 4.54140625 6.90234375 5.28515625 C7.33686586 8.5440721 6.69415044 10.18070129 5.27734375 13.09765625 C5.93734375 13.75765625 6.59734375 14.41765625 7.27734375 15.09765625 C6.61734375 15.09765625 5.95734375 15.09765625 5.27734375 15.09765625 C5.60734375 18.06765625 5.93734375 21.03765625 6.27734375 24.09765625 C4.03984164 21.86015414 3.4320496 20.25380416 2.33203125 17.30859375 C1.97753906 16.36757812 1.62304688 15.4265625 1.2578125 14.45703125 C0.89300781 13.4721875 0.52820313 12.48734375 0.15234375 11.47265625 C-0.22019531 10.48007813 -0.59273437 9.4875 -0.9765625 8.46484375 C-1.89679572 6.0108885 -2.81193301 3.55515337 -3.72265625 1.09765625 C-2.72265625 0.09765625 -2.72265625 0.09765625 0 0 Z " fill="#D87134" transform="translate(175.72265625,71.90234375)"/>
<path d="M0 0 C1.65 1.65 3.3 3.3 5 5 C4.54554036 6.41791408 4.08625056 7.83428046 3.625 9.25 C3.36976563 10.03890625 3.11453125 10.8278125 2.8515625 11.640625 C2.04826333 13.86627958 1.10288338 15.90931672 0 18 C-1.98 17.34 -3.96 16.68 -6 16 C-6 14.35 -6 12.7 -6 11 C-6.66 11 -7.32 11 -8 11 C-8 9.68 -8 8.36 -8 7 C-7.01 6.67 -6.02 6.34 -5 6 C-5 6.66 -5 7.32 -5 8 C-1.39345961 5.59563974 -1.14547068 4.05320393 0 0 Z " fill="#E36C27" transform="translate(127,90)"/>
<path d="M0 0 C5.61 0 11.22 0 17 0 C17 2.64 17 5.28 17 8 C16 9 16 9 12.40234375 9.09765625 C10.91403133 9.0909822 9.42573568 9.07902183 7.9375 9.0625 C6.79958008 9.05573242 6.79958008 9.05573242 5.63867188 9.04882812 C3.75908129 9.0370068 1.87953101 9.01907078 0 9 C0 10.65 0 12.3 0 14 C6.27 14 12.54 14 19 14 C19 16.97 19 19.94 19 23 C13.72 23 8.44 23 3 23 C3 22.67 3 22.34 3 22 C7.95 22 12.9 22 18 22 C18 19.69 18 17.38 18 15 C11.73 15 5.46 15 -1 15 C-1.33 12.69 -1.66 10.38 -2 8 C0.11925604 5.88074396 4.6196093 6.58168983 7.5625 6.4375 C8.36880859 6.39431641 9.17511719 6.35113281 10.00585938 6.30664062 C12.00368805 6.20024738 14.0018207 6.09959112 16 6 C16 4.35 16 2.7 16 1 C10.72 1 5.44 1 0 1 C0 0.67 0 0.34 0 0 Z " fill="#CD7A4A" transform="translate(349,85)"/>
<path d="M0 0 C0.33 0 0.66 0 1 0 C1 2.97 1 5.94 1 9 C-2.96 9 -6.92 9 -11 9 C-11 17.58 -11 26.16 -11 35 C-22 36 -22 36 -24 35 C-24 27.08 -24 19.16 -24 11 C-23.67 11 -23.34 11 -23 11 C-23 18.59 -23 26.18 -23 34 C-16.06011932 32.86719403 -16.06011932 32.86719403 -14.10546875 28.93359375 C-12.67395195 24.71559504 -12.44514663 20.48531757 -12.3125 16.0625 C-12.27833984 15.28326172 -12.24417969 14.50402344 -12.20898438 13.70117188 C-12.1273929 11.80125607 -12.06200115 9.90065597 -12 8 C-8.04 8 -4.08 8 0 8 C0 5.36 0 2.72 0 0 Z " fill="#D07842" transform="translate(331,73)"/>
<path d="M0 0 C3.60389664 -0.11601004 7.20731467 -0.18718408 10.8125 -0.25 C11.83666016 -0.28351563 12.86082031 -0.31703125 13.91601562 -0.3515625 C14.89892578 -0.36445312 15.88183594 -0.37734375 16.89453125 -0.390625 C17.80050049 -0.41157227 18.70646973 -0.43251953 19.63989258 -0.45410156 C22 0 22 0 23.8190918 1.77441406 C25 4 25 4 25 8 C24.01 8 23.02 8 22 8 C21.67 7.01 21.34 6.02 21 5 C15.06 5.33 9.12 5.66 3 6 C3 5.34 3 4.68 3 4 C3.66 3.67 4.32 3.34 5 3 C3.35 2.67 1.7 2.34 0 2 C0 1.34 0 0.68 0 0 Z " fill="#E26C26" transform="translate(266,74)"/>
<path d="M0 0 C1.47583955 0.0001591 2.95168467 0.00585225 4.42749023 0.01586914 C5.20293686 0.01728409 5.97838348 0.01869904 6.77732849 0.02015686 C9.26361893 0.02577194 11.74982059 0.03832693 14.23608398 0.05102539 C15.91772331 0.05603845 17.59936405 0.06060169 19.28100586 0.06469727 C23.41189965 0.07574626 27.54272674 0.09302094 31.67358398 0.11352539 C31.67358398 0.44352539 31.67358398 0.77352539 31.67358398 1.11352539 C12.33315845 2.30501475 12.33315845 2.30501475 2.67358398 2.11352539 C2.34358398 4.42352539 2.01358398 6.73352539 1.67358398 9.11352539 C0.01743741 9.49571306 -1.65098626 9.82747641 -3.32641602 10.11352539 C-4.32641602 9.11352539 -4.32641602 9.11352539 -4.45922852 7.30102539 C-4.45665039 6.57915039 -4.45407227 5.85727539 -4.45141602 5.11352539 C-4.45399414 4.39165039 -4.45657227 3.66977539 -4.45922852 2.92602539 C-4.21879425 -0.35519524 -3.37438586 0.11516253 0 0 Z " fill="#D47037" transform="translate(299.326416015625,71.886474609375)"/>
<path d="M0 0 C11.79192825 -0.92017937 11.79192825 -0.92017937 14.75390625 1.3359375 C15.8125 3 15.8125 3 17 6 C16.67 6.66 16.34 7.32 16 8 C13.36 7.67 10.72 7.34 8 7 C7.34 8.32 6.68 9.64 6 11 C4.99126984 9.73608512 3.99328178 8.46359117 3 7.1875 C2.443125 6.47980469 1.88625 5.77210937 1.3125 5.04296875 C0 3 0 3 0 0 Z " fill="#DF6E2A" transform="translate(371,72)"/>
<path d="M0 0 C3.32164399 3.0897274 5.76030488 6.40224131 8.25 10.1875 C8.95640625 11.25355469 9.6628125 12.31960937 10.390625 13.41796875 C12 16 12 16 12 17 C9.75165504 17.13526139 7.50097486 17.23210804 5.25 17.3125 C3.99703125 17.37050781 2.7440625 17.42851563 1.453125 17.48828125 C-2 17 -2 17 -4.453125 14.60546875 C-6 12 -6 12 -6 10 C-5.34 10 -4.68 10 -4 10 C-4 10.66 -4 11.32 -4 12 C-3.34 12 -2.68 12 -2 12 C-1.67 12.66 -1.34 13.32 -1 14 C1.02463255 14.65213292 1.02463255 14.65213292 3 15 C3 13.68 3 12.36 3 11 C3.66 11 4.32 11 5 11 C5 10.01 5 9.02 5 8 C4.01 8 3.02 8 2 8 C2 6.68 2 5.36 2 4 C1.34 4 0.68 4 0 4 C0 2.68 0 1.36 0 0 Z " fill="#D2723F" transform="translate(399,91)"/>
<path d="M0 0 C0.99 0 1.98 0 3 0 C5.14912995 4.47735407 6.78867467 7.92994857 6 13 C4.125 15.25 4.125 15.25 2 17 C1.34 17.66 0.68 18.32 0 19 C-0.2165625 17.39125 -0.2165625 17.39125 -0.4375 15.75 C-0.8606784 12.23318279 -0.8606784 12.23318279 -1.6875 9.875 C-2.135587 7.18647797 -1.07094195 5.45686682 0 3 C0 2.01 0 1.02 0 0 Z " fill="#E36C26" transform="translate(182,75)"/>
<path d="M0 0 C2.625 0.3125 2.625 0.3125 6 2 C8.43698023 5.45911322 10.43922464 9.0646598 12 13 C11.67 13.66 11.34 14.32 11 15 C9.99466333 13.37829621 8.99588093 11.75252763 8 10.125 C7.443125 9.22007813 6.88625 8.31515625 6.3125 7.3828125 C5 5 5 5 5 3 C4.01 3 3.02 3 2 3 C1.67 7.29 1.34 11.58 1 16 C-1.31 16 -3.62 16 -6 16 C-6 15.67 -6 15.34 -6 15 C-4.35 15 -2.7 15 -1 15 C-1 13.35 -1 11.7 -1 10 C-1.99 10 -2.98 10 -4 10 C-3.71125 9.46375 -3.4225 8.9275 -3.125 8.375 C-1.83288192 5.64719516 -0.91441408 2.87387282 0 0 Z " fill="#CF7341" transform="translate(270,92)"/>
<path d="M0 0 C4.0081803 3.67416528 6.52591615 7.14346504 9 12 C9 12.66 9 13.32 9 14 C-0.41002278 15.33257403 -0.41002278 15.33257403 -5 14 C-2 12 -2 12 3 11 C2.01 7.37 1.02 3.74 0 0 Z " fill="#D5773B" transform="translate(287,94)"/>
<path d="M0 0 C0 0.66 0 1.32 0 2 C-1.65 2.33 -3.3 2.66 -5 3 C-6.11840146 10.67782757 -6.11840146 10.67782757 -4 18 C-3.92353835 20.3320802 -3.90856701 22.66845878 -4 25 C-6.1382187 20.92617263 -7.39215314 16.77401271 -8.6875 12.375 C-8.92533203 11.59898438 -9.16316406 10.82296875 -9.40820312 10.0234375 C-11.12008843 4.24017687 -11.12008843 4.24017687 -10 2 C-6.3871899 0.55487596 -3.93312158 0 0 0 Z " fill="#CF6D3B" transform="translate(139,63)"/>
<path d="M0 0 C0.66 0 1.32 0 2 0 C2 1.32 2 2.64 2 4 C2.66 4 3.32 4 4 4 C5.6875 5.625 5.6875 5.625 7 8 C6.70740515 10.00636471 6.37366113 12.00714063 6 14 C6.82342532 16.31980946 6.82342532 16.31980946 8 18 C8.66 17.67 9.32 17.34 10 17 C9.67 19.31 9.34 21.62 9 24 C8.34 24 7.68 24 7 24 C5.82599412 20.56496228 4.66206791 17.12659286 3.5 13.6875 C3.16613281 12.71103516 2.83226562 11.73457031 2.48828125 10.72851562 C2.17246094 9.79072266 1.85664063 8.85292969 1.53125 7.88671875 C1.23798828 7.02264404 0.94472656 6.15856934 0.64257812 5.26831055 C0 3 0 3 0 0 Z " fill="#CC723C" transform="translate(135,89)"/>
<path d="M0 0 C-0.33 1.65 -0.66 3.3 -1 5 C-1.804375 5.12375 -2.60875 5.2475 -3.4375 5.375 C-4.7059375 5.684375 -4.7059375 5.684375 -6 6 C-6.33 6.66 -6.66 7.32 -7 8 C-9 6 -9 6 -10 3 C-7.29536552 -0.8183075 -4.37912428 -0.24787496 0 0 Z " fill="#E07128" transform="translate(408,73)"/>
<path d="M0 0 C0.33 0.66 0.66 1.32 1 2 C0.54173828 3.10601562 0.54173828 3.10601562 0.07421875 4.234375 C-1.16403634 7.42231901 -1.23365916 9.84261442 -1.1875 13.25 C-1.18105469 14.30703125 -1.17460938 15.3640625 -1.16796875 16.453125 C-1.28529306 18.93438718 -1.28529306 18.93438718 0 20 C0.04063832 21.66617115 0.042721 23.33388095 0 25 C0.66 25 1.32 25 2 25 C1.67 26.32 1.34 27.64 1 29 C-2.95537752 22.49276601 -4.51725168 17.75877523 -4 10 C-1.85054945 1.85054945 -1.85054945 1.85054945 0 0 Z " fill="#CB7444" transform="translate(119,76)"/>
<path d="M0 0 C1.33470263 2.66940525 0.57333449 4.13332753 0 7 C0.33 7.66 0.66 8.32 1 9 C0.34 9 -0.32 9 -1 9 C-1.33 9.66 -1.66 10.32 -2 11 C-3.44754255 12.44754255 -5.03962913 12.55733561 -7 13 C-7.33 14.32 -7.66 15.64 -8 17 C-9.32 17.33 -10.64 17.66 -12 18 C-8.57247434 11.5733894 -4.34653016 5.83405626 0 0 Z " fill="#CF6F39" transform="translate(381,90)"/>
<path d="M0 0 C1.21151564 3.63454691 0.65868046 4.92121744 -0.43359375 8.54296875 C-0.75263672 9.61611328 -1.07167969 10.68925781 -1.40039062 11.79492188 C-1.74263672 12.91447266 -2.08488281 14.03402344 -2.4375 15.1875 C-2.94506836 16.88422852 -2.94506836 16.88422852 -3.46289062 18.61523438 C-4.30091031 21.41256769 -5.14689329 24.207238 -6 27 C-6.33 27 -6.66 27 -7 27 C-7.08078641 24.87561661 -7.13909141 22.7503677 -7.1875 20.625 C-7.22230469 19.44164063 -7.25710937 18.25828125 -7.29296875 17.0390625 C-7.19628906 16.03617188 -7.09960938 15.03328125 -7 14 C-6.01 13.34 -5.02 12.68 -4 12 C-3.01857521 9.39191552 -3.01857521 9.39191552 -2.375 6.4375 C-1.07890223 1.07890223 -1.07890223 1.07890223 0 0 Z " fill="#CF713F" transform="translate(152,79)"/>
<path d="M0 0 C0.61875 0.33 1.2375 0.66 1.875 1 C3.91018344 2.14193235 3.91018344 2.14193235 6 2 C7.66666667 2 9.33333333 2 11 2 C10.3125 3.9453125 10.3125 3.9453125 9 6 C6.6875 6.6796875 6.6875 6.6796875 4 6.875 C3.113125 6.95492187 2.22625 7.03484375 1.3125 7.1171875 C-1 7 -1 7 -3 5 C-2.01 3.35 -1.02 1.7 0 0 Z " fill="#DC7334" transform="translate(374,102)"/>
<path d="M0 0 C1.43836751 0.11458693 2.87570966 0.24209116 4.3125 0.375 C5.51326172 0.47941406 5.51326172 0.47941406 6.73828125 0.5859375 C9 1 9 1 12 3 C11.71758359 4.46015291 11.42373386 5.91809793 11.125 7.375 C10.96257812 8.18710938 10.80015625 8.99921875 10.6328125 9.8359375 C10 12 10 12 8 14 C8.66 11.03 9.32 8.06 10 5 C8.35 5 6.7 5 5 5 C5 5.66 5 6.32 5 7 C4.34 7 3.68 7 3 7 C3.66 5.35 4.32 3.7 5 2 C3.35 1.67 1.7 1.34 0 1 C0 0.67 0 0.34 0 0 Z " fill="#D4723D" transform="translate(145,63)"/>
<path d="M0 0 C0.66 0 1.32 0 2 0 C3 1.66666667 4 3.33333333 5 5 C5.66 5 6.32 5 7 5 C7.66 6.65 8.32 8.3 9 10 C8.01 10.33 7.02 10.66 6 11 C1.33333333 8.66666667 1.33333333 8.66666667 0 6 C-0.039992 4.00039988 -0.04346799 1.99952758 0 0 Z " fill="#E0A96B" transform="translate(412,70)"/>
<path d="M0 0 C1.32 0 2.64 0 4 0 C4.93423645 3.01031744 5.04449911 3.86650268 4 7 C1.4375 8.1875 1.4375 8.1875 -1 9 C-2.0625 6.625 -2.0625 6.625 -3 4 C-2.67 3.34 -2.34 2.68 -2 2 C-1.34 2 -0.68 2 0 2 C0 1.34 0 0.68 0 0 Z " fill="#DD955C" transform="translate(417,67)"/>
<path d="M0 0 C0.66 0 1.32 0 2 0 C2 0.66 2 1.32 2 2 C2.66 2 3.32 2 4 2 C4.33 2.66 4.66 3.32 5 4 C7.02463255 4.65213292 7.02463255 4.65213292 9 5 C9 4.34 9 3.68 9 3 C9.66 3 10.32 3 11 3 C11 3.66 11 4.32 11 5 C12.32 5 13.64 5 15 5 C15.33 4.34 15.66 3.68 16 3 C16.66 4.32 17.32 5.64 18 7 C15.75165504 7.13526139 13.50097486 7.23210804 11.25 7.3125 C9.99703125 7.37050781 8.7440625 7.42851563 7.453125 7.48828125 C4 7 4 7 1.546875 4.60546875 C0 2 0 2 0 0 Z " fill="#D57C45" transform="translate(393,101)"/>
<path d="M0 0 C4.29 0 8.58 0 13 0 C13 0.99 13 1.98 13 3 C12.67 2.67 12.34 2.34 12 2 C10.48530552 1.76807135 8.96245438 1.58784762 7.4375 1.4375 C6.61121094 1.35371094 5.78492188 1.26992187 4.93359375 1.18359375 C4.29550781 1.12300781 3.65742188 1.06242187 3 1 C3.30035156 1.55429688 3.60070312 2.10859375 3.91015625 2.6796875 C4.29042969 3.40414062 4.67070312 4.12859375 5.0625 4.875 C5.63677734 5.95394531 5.63677734 5.95394531 6.22265625 7.0546875 C6.47917969 7.69664063 6.73570312 8.33859375 7 9 C6.67 9.66 6.34 10.32 6 11 C4.99126984 9.73608512 3.99328178 8.46359117 3 7.1875 C2.443125 6.47980469 1.88625 5.77210937 1.3125 5.04296875 C0 3 0 3 0 0 Z " fill="#C37645" transform="translate(371,72)"/>
<path d="M0 0 C0.66 0 1.32 0 2 0 C1.31583566 4.17576168 -0.01365009 7.88080407 -1.5625 11.8125 C-2.01753906 12.97394531 -2.47257813 14.13539062 -2.94140625 15.33203125 C-3.29074219 16.21246094 -3.64007813 17.09289062 -4 18 C-5.03614385 14.79671021 -4.92847968 12.68994173 -4.125 9.4375 C-3.94195312 8.67308594 -3.75890625 7.90867187 -3.5703125 7.12109375 C-3.1067042 5.39685193 -2.56461868 3.69385603 -2 2 C-1.34 2.33 -0.68 2.66 0 3 C0 2.01 0 1.02 0 0 Z " fill="#D1713A" transform="translate(205,89)"/>
<path d="M0 0 C0.33 0 0.66 0 1 0 C1.33 2.64 1.66 5.28 2 8 C1.01 8 0.02 8 -1 8 C-1.66 10.64 -2.32 13.28 -3 16 C-4.32 15.67 -5.64 15.34 -7 15 C-7 13.35 -7 11.7 -7 10 C-6.01 11.485 -6.01 11.485 -5 13 C-4.35309078 11.3962669 -3.70751236 9.79199694 -3.0625 8.1875 C-2.70285156 7.29417969 -2.34320313 6.40085937 -1.97265625 5.48046875 C-1.26386514 3.6729091 -0.6139753 1.84192591 0 0 Z " fill="#CB733D" transform="translate(198,80)"/>
<path d="M0 0 C0.82172513 3.12785694 1.32497214 5.75027857 1 9 C-0.375 11.3125 -0.375 11.3125 -2 13 C-2.66 13 -3.32 13 -4 13 C-4.33 14.32 -4.66 15.64 -5 17 C-5.33 16.34 -5.66 15.68 -6 15 C-5.09239638 12.40267775 -4.12932108 9.90549025 -3.0625 7.375 C-2.77181641 6.66859375 -2.48113281 5.9621875 -2.18164062 5.234375 C-1.46132512 3.48672427 -0.73154306 1.74298085 0 0 Z " fill="#CC713C" transform="translate(155,87)"/>
<path d="M0 0 C2.67901932 2.31881505 3.66204403 4.31814468 4.6875 7.6875 C4.93886719 8.49574219 5.19023438 9.30398437 5.44921875 10.13671875 C5.63097656 10.75160156 5.81273438 11.36648437 6 12 C5.34 12 4.68 12 4 12 C3.67 11.01 3.34 10.02 3 9 C0.99983534 7.79117904 0.99983534 7.79117904 -1 7 C-0.34 6.01 0.32 5.02 1 4 C0.01 4 -0.98 4 -2 4 C-1.34 2.68 -0.68 1.36 0 0 Z " fill="#CA7340" transform="translate(122,72)"/>
<path d="M0 0 C1.9375 0.75 1.9375 0.75 4 2 C4.875 4 4.875 4 5 6 C4.34 6.66 3.68 7.32 3 8 C2.67 7.01 2.34 6.02 2 5 C1.54625 5.495 1.0925 5.99 0.625 6.5 C-1 8 -1 8 -3 8 C-1.125 2.25 -1.125 2.25 0 0 Z " fill="#CF743D" transform="translate(162,72)"/>
<path d="M0 0 C0.598125 0.804375 1.19625 1.60875 1.8125 2.4375 C3.80947276 5.22327984 3.80947276 5.22327984 7 6 C6.34 6 5.68 6 5 6 C5.33 8.97 5.66 11.94 6 15 C3.75848118 12.75848118 3.03698675 10.9932888 1.875 8.0625 C1.52179688 7.18722656 1.16859375 6.31195313 0.8046875 5.41015625 C0 3 0 3 0 0 Z " fill="#CE723A" transform="translate(176,81)"/>
<path d="M0 0 C3.45743005 2.85237979 4.89859263 4.14528078 5.4375 8.6875 C5 12 5 12 3 14 C2.67 13.01 2.34 12.02 2 11 C1.34 10.34 0.68 9.68 0 9 C0.66 8.67 1.32 8.34 2 8 C1.47731534 5.23723823 0.89130413 2.6739124 0 0 Z " fill="#CB7440" transform="translate(288,74)"/>
<path d="M0 0 C1.98 0.495 1.98 0.495 4 1 C3.67 2.32 3.34 3.64 3 5 C3.66 5 4.32 5 5 5 C5 5.99 5 6.98 5 8 C3.68 8.33 2.36 8.66 1 9 C0.855625 8.38125 0.71125 7.7625 0.5625 7.125 C0.06847775 4.96741678 0.06847775 4.96741678 -1 3 C-0.34 3 0.32 3 1 3 C0.67 2.01 0.34 1.02 0 0 Z " fill="#D29970" transform="translate(420,71)"/>
<path d="M0 0 C0.33 1.32 0.66 2.64 1 4 C1.721875 3.67 2.44375 3.34 3.1875 3 C6.01697427 1.99396471 8.02895466 1.83022598 11 2 C7.30827405 5.53790403 3.90609405 5.59115883 -1 6 C-1.33 5.34 -1.66 4.68 -2 4 C-1.0625 1.875 -1.0625 1.875 0 0 Z " fill="#CC7746" transform="translate(145,111)"/>
<path d="M0 0 C0 0.99 0 1.98 0 3 C-4.34285714 7 -4.34285714 7 -7 7 C-6.34 5.02 -5.68 3.04 -5 1 C-3.35 0.67 -1.7 0.34 0 0 Z " fill="#D0703C" transform="translate(163,106)"/>
<path d="M0 0 C0.33 0.66 0.66 1.32 1 2 C0.33333333 3.66666667 -0.33333333 5.33333333 -1 7 C-1.3813074 9.32597511 -1.72460254 11.65912158 -2 14 C-2.66 14 -3.32 14 -4 14 C-3.66009167 8.62007164 -3.31442207 4.46726453 0 0 Z " fill="#C57546" transform="translate(217,78)"/>
<path d="M0 0 C0.99 0.66 1.98 1.32 3 2 C5.62531524 2.16713569 5.62531524 2.16713569 8 2 C8 2.66 8 3.32 8 4 C4.52128379 5.15957207 3.65780355 4.77456651 0.3125 3.5625 C-0.49574219 3.27503906 -1.30398437 2.98757812 -2.13671875 2.69140625 C-2.75160156 2.46324219 -3.36648437 2.23507813 -4 2 C-2.68 1.34 -1.36 0.68 0 0 Z " fill="#CE7543" transform="translate(134,112)"/>
<path d="M0 0 C0.33 0.99 0.66 1.98 1 3 C-0.4375 5.1875 -0.4375 5.1875 -2 7 C-3.32 5.02 -4.64 3.04 -6 1 C-4.7934375 1.0309375 -4.7934375 1.0309375 -3.5625 1.0625 C-1.06645115 1.29633621 -1.06645115 1.29633621 0 0 Z " fill="#D67136" transform="translate(384,83)"/>
<path d="M0 0 C0.66 0.33 1.32 0.66 2 1 C-2.75 5.875 -2.75 5.875 -5 7 C-5 5.35 -5 3.7 -5 2 C-3.68 2.33 -2.36 2.66 -1 3 C-0.67 2.01 -0.34 1.02 0 0 Z " fill="#CE7342" transform="translate(249,100)"/>
<path d="M0 0 C0.66 0.33 1.32 0.66 2 1 C1.67 1.66 1.34 2.32 1 3 C0.7724985 4.87056791 0.59037189 6.74685958 0.4375 8.625 C0.35371094 9.62789062 0.26992187 10.63078125 0.18359375 11.6640625 C0.12300781 12.43492188 0.06242188 13.20578125 0 14 C-0.33 14 -0.66 14 -1 14 C-1.33 9.71 -1.66 5.42 -2 1 C-1.34 0.67 -0.68 0.34 0 0 Z " fill="#C67044" transform="translate(227,82)"/>
<path d="M0 0 C0 0.99 0 1.98 0 3 C-0.66 3 -1.32 3 -2 3 C-2 3.66 -2 4.32 -2 5 C-3.65 5 -5.3 5 -7 5 C-2.25 0 -2.25 0 0 0 Z " fill="#CD7141" transform="translate(225,73)"/>
<path d="M0 0 C0.66 0 1.32 0 2 0 C2.69710731 1.28650706 3.38242876 2.57940665 4.0625 3.875 C4.63677734 4.95394531 4.63677734 4.95394531 5.22265625 6.0546875 C5.47917969 6.69664063 5.73570312 7.33859375 6 8 C5.67 8.66 5.34 9.32 5 10 C2.08772731 6.71195019 0.50298788 4.40114397 0 0 Z " fill="#CC723D" transform="translate(372,73)"/>
<path d="M0 0 C1.32 0 2.64 0 4 0 C4.33 1.32 4.66 2.64 5 4 C3.02 4 1.04 4 -1 4 C-0.67 2.68 -0.34 1.36 0 0 Z " fill="#DE6F27" transform="translate(404,103)"/>
<path d="M0 0 C0.6875 1.625 0.6875 1.625 1 4 C-0.4375 7.25 -0.4375 7.25 -2 10 C-2.66 9.67 -3.32 9.34 -4 9 C-4 8.34 -4 7.68 -4 7 C-3.34 7 -2.68 7 -2 7 C-1.855625 6.401875 -1.71125 5.80375 -1.5625 5.1875 C-1.1127561 3.43849596 -0.57107659 1.71322977 0 0 Z " fill="#CD6C3D" transform="translate(169,93)"/>
<path d="M0 0 C0.66 0 1.32 0 2 0 C2.66 1.65 3.32 3.3 4 5 C3.01 5.33 2.02 5.66 1 6 C0.01 5.34 -0.98 4.68 -2 4 C-1.34 2.68 -0.68 1.36 0 0 Z " fill="#E1B691" transform="translate(417,75)"/>
<path d="M0 0 C0 1.65 0 3.3 0 5 C-0.99 5.33 -1.98 5.66 -3 6 C-3.66 4.35 -4.32 2.7 -5 1 C-3 0 -3 0 0 0 Z " fill="#EC8F67" transform="translate(419,70)"/>
</svg>
