<?xml version="1.0" encoding="utf-8"?>
<svg viewBox="0 0 24 24" fill-rule="evenodd" clip-rule="evenodd" xmlns="http://www.w3.org/2000/svg">
  <ellipse style="paint-order: fill; stroke: rgb(0, 0, 0); fill: rgb(255, 255, 255); stroke-opacity: 0;" cx="12.333" cy="12.417" rx="11.036" ry="11.065"/>
  <path d="M 12.312 0.454 C 18.935 0.454 24.312 5.831 24.312 12.454 C 24.312 19.077 18.935 24.454 12.312 24.454 C 5.689 24.454 0.312 19.077 0.312 12.454 C 0.312 5.831 5.689 0.454 12.312 0.454 Z M 12.312 1.454 C 18.383 1.454 23.312 6.383 23.312 12.454 C 23.312 18.525 18.383 23.454 12.312 23.454 C 6.241 23.454 1.312 18.525 1.312 12.454 C 1.312 6.383 6.241 1.454 12.312 1.454 Z M 9.312 7.207 L 15.752 12.454 L 9.312 17.717 L 9.99 18.454 L 17.312 12.454 L 9.977 6.454 L 9.312 7.207 L 9.312 7.207 Z" style="fill: rgb(255, 96, 0);"/>
</svg>