<?xml version="1.0" encoding="UTF-8"?>
<svg version="1.1" xmlns="http://www.w3.org/2000/svg" width="2560" height="451">
<path d="M0 0 C1.24940369 0.00054382 2.49880737 0.00108765 3.78607178 0.00164795 C24.5891525 0.04312338 44.90193845 1.0366692 65.4375 4.375 C66.42577789 4.53482361 66.42577789 4.53482361 67.434021 4.69787598 C109.00112035 11.48097744 148.41478206 23.65566528 186.55102539 41.35595703 C190.6424538 43.19927126 193.07185737 43.79637202 197.4375 42.375 C201.72622503 35.94191245 200.05140187 27.09696258 200.4375 19.375 C219.5775 19.375 238.7175 19.375 258.4375 19.375 C258.4375 65.245 258.4375 111.115 258.4375 158.375 C241.2775 158.375 224.1175 158.375 206.4375 158.375 C204.4575 152.435 202.4775 146.495 200.4375 140.375 C195.92077842 131.05015545 191.19084384 123.17823342 184.4375 115.375 C183.82003906 114.55773437 183.20257813 113.74046875 182.56640625 112.8984375 C151.90460222 76.55435419 86.68361375 66.38149488 42.4375 62.375 C41.30699219 62.26285156 40.17648437 62.15070312 39.01171875 62.03515625 C-7.62921744 58.10806474 -74.68903814 59.11376469 -112.9375 90.5625 C-120.12548443 97.31063998 -123.90283801 105.77838007 -124.875 115.5 C-124.24316082 123.33480589 -121.73696421 130.52635689 -115.6875 135.765625 C-101.99777363 146.13357953 -82.53145741 147.39044852 -66.125 149.73046875 C-65.38501833 149.8365766 -64.64503666 149.94268444 -63.8826313 150.05200768 C-44.99840835 152.73837521 -26.03326747 154.63853931 -7.05990601 156.56845093 C198.85187451 177.54827169 198.85187451 177.54827169 247.4375 220.375 C248.11683594 220.91125 248.79617188 221.4475 249.49609375 222 C260.41045948 230.78419777 268.05718961 243.08158729 274.4375 255.375 C275.14326172 256.72464844 275.14326172 256.72464844 275.86328125 258.1015625 C288.87094162 284.76122556 289.85689307 315.91128817 281.25 344 C276.3219295 357.81907011 268.99315087 369.31289413 259.4375 380.375 C258.79296875 381.12265625 258.1484375 381.8703125 257.484375 382.640625 C214.0726592 429.07228624 131.76523328 445.08092096 71.4375 447.375 C64.5221797 447.54306551 57.60626475 447.56083314 50.68920898 447.56030273 C47.53680607 447.56247464 44.38476262 447.58065644 41.23242188 447.59960938 C22.12035086 447.65364064 3.09493772 446.56316531 -15.75 443.25 C-17.58860596 442.93349487 -17.58860596 442.93349487 -19.46435547 442.6105957 C-56.95342163 435.97741118 -94.29358871 427.1666766 -129.53515625 412.51171875 C-130.67122314 412.0410498 -131.80729004 411.57038086 -132.9777832 411.08544922 C-135.14969206 410.17496162 -137.3141542 409.24643442 -139.46948242 408.29736328 C-145.11674162 405.82911802 -145.11674162 405.82911802 -151.140625 405.98046875 C-153.64166576 407.28087375 -153.64166576 407.28087375 -155.5625 409.375 C-156.0575 422.245 -156.0575 422.245 -156.5625 435.375 C-177.6825 435.375 -198.8025 435.375 -220.5625 435.375 C-220.5625 382.905 -220.5625 330.435 -220.5625 276.375 C-201.7525 276.375 -182.9425 276.375 -163.5625 276.375 C-162.2425 282.975 -160.9225 289.575 -159.5625 296.375 C-158.02698238 300.94114449 -156.55595132 305.05291529 -154.5625 309.375 C-154.15644531 310.29152344 -153.75039062 311.20804687 -153.33203125 312.15234375 C-149.23475547 320.52712739 -143.1049316 326.86690061 -136.5625 333.375 C-135.74652344 334.19097656 -134.93054688 335.00695312 -134.08984375 335.84765625 C-97.91992719 370.08529012 -40.92233961 379.56664929 6.4375 385.375 C7.36095215 385.49359375 8.2844043 385.6121875 9.23583984 385.734375 C56.6928697 391.67866653 120.01699809 389.44774456 160.75 361.375 C169.07101276 354.76713693 174.75775089 345.96541822 176.4375 335.375 C177.22986809 324.60184156 175.6797034 315.34829909 169.27734375 306.47265625 C162.39424487 298.6250467 153.21457155 295.25731298 143.4375 292.375 C142.7662207 292.17165039 142.09494141 291.96830078 141.40332031 291.75878906 C130.70178724 288.5903444 119.82025412 286.66772271 108.7890625 285.0546875 C108.07392361 284.94934063 107.35878471 284.84399376 106.62197495 284.73545456 C86.84778073 281.84598866 66.97315115 279.80801241 47.10409546 277.69717407 C35.99264397 276.51551396 24.8847755 275.30082214 13.77734375 274.08203125 C12.15346583 273.90389798 12.15346583 273.90389798 10.4967823 273.72216606 C-151.66440345 255.90079221 -151.66440345 255.90079221 -195.5625 218.375 C-196.88507813 217.28832031 -196.88507813 217.28832031 -198.234375 216.1796875 C-217.44391372 199.73762469 -229.50503476 175.38405774 -232.5625 150.375 C-234.34563814 117.3439032 -228.05421308 90.790435 -205.671875 65.66796875 C-201.38699305 61.02070366 -196.60270221 57.1713292 -191.5625 53.375 C-190.71042969 52.67375 -189.85835937 51.9725 -188.98046875 51.25 C-150.87321202 20.72058116 -96.10747588 8.05629071 -48.5625 2.375 C-47.50163681 2.24629517 -47.50163681 2.24629517 -46.41934204 2.11499023 C-30.95152576 0.29012754 -15.56372969 -0.02559186 0 0 Z " fill="#0E0E0E" transform="translate(232.5625,-0.375)"/>
<path d="M0 0 C25.70462528 -0.29386055 51.40788329 -0.53315878 77.11376381 -0.67355824 C89.05041413 -0.74049124 100.98594403 -0.83168338 112.921875 -0.98071289 C123.32965887 -1.11059993 133.73663111 -1.19422972 144.14520299 -1.22315043 C149.65308815 -1.2400479 155.15865217 -1.27953315 160.66579056 -1.37449074 C165.85891869 -1.46330126 171.04878976 -1.48984174 176.24260521 -1.47039986 C178.13972297 -1.47395163 180.03695921 -1.49948518 181.93341637 -1.54967117 C191.07396494 -1.77951885 198.02562328 -1.6585455 205.14707601 4.57687885 C207.43064169 6.80153024 209.58278811 9.10653589 211.67417789 11.5120312 C213.35047413 13.39333675 215.18893147 15.01611143 217.125 16.625 C220.4779383 19.51744892 223.74315812 22.50036976 227 25.5 C230.27853077 28.51928633 233.56581022 31.52202194 236.9375 34.4375 C241.12032011 38.06144644 245.16271807 41.83255746 249.22021484 45.59521484 C252.73212744 48.84615512 256.29001418 52.02984313 259.91015625 55.16015625 C263.18114489 58.03984905 266.37503091 61.00354253 269.58056641 63.95556641 C272.33491097 66.48754824 275.1075121 68.99042801 277.9375 71.4375 C282.12032011 75.06144644 286.16271807 78.83255746 290.22021484 82.59521484 C293.73212744 85.84615512 297.29001418 89.02984313 300.91015625 92.16015625 C303.64370559 94.56670156 306.32114006 97.03303196 309 99.5 C312.30026876 102.53890177 315.60949347 105.561561 319 108.5 C322.87817013 111.86322638 326.65527811 115.33335671 330.43310547 118.80810547 C335.25584891 123.24223628 340.1234112 127.6251824 345 132 C346.66692647 133.49971128 348.33359149 134.99971321 350 136.5 C351.2375 137.61375 351.2375 137.61375 352.5 138.75 C360 145.5 360 145.5 362.5078125 147.7578125 C364.14739879 149.23292618 365.78799655 150.70691652 367.4296875 152.1796875 C372.0203061 156.30097768 376.58447107 160.44873788 381.125 164.625 C384.99367822 168.18253099 388.90334125 171.68289575 392.875 175.125 C396.15508581 178.01919336 399.36268057 180.99218892 402.58032227 183.95532227 C405.33473428 186.48740116 408.10742499 188.99035268 410.9375 191.4375 C415.12032011 195.06144644 419.16271807 198.83255746 423.22021484 202.59521484 C426.73212744 205.84615512 430.29001418 209.02984313 433.91015625 212.16015625 C437.18114489 215.03984905 440.37503091 218.00354253 443.58056641 220.95556641 C446.33491097 223.48754824 449.1075121 225.99042801 451.9375 228.4375 C456.26495759 232.17942422 460.43717075 236.08818369 464.60913086 240.00170898 C467.56791828 242.82550658 467.56791828 242.82550658 471 245 C471.12540346 210.39043771 470.86783383 175.7993902 470.25537109 141.19506836 C470.14328044 134.83983941 470.04358463 128.4844752 469.94656563 122.12900066 C469.86845297 117.13492522 469.78239399 112.14100947 469.6941185 107.14710426 C469.65386383 104.80108055 469.61635356 102.45500782 469.58185196 100.10889244 C470.55679699 77.39201204 470.55679699 77.39201204 463 57 C457.54426275 52.89230039 452.52850798 51.88963324 445.85449219 51.79467773 C444.61350769 51.77473251 443.37252319 51.75478729 442.09393311 51.73423767 C440.744915 51.71725607 439.39589559 51.70037717 438.046875 51.68359375 C436.66253049 51.66301124 435.27819208 51.64201443 433.89385986 51.62062073 C430.257456 51.56553393 426.62099667 51.51606586 422.98449707 51.46777344 C419.27086484 51.41746036 415.55731173 51.36187688 411.84375 51.30664062 C404.56256094 51.19872591 397.2813266 51.09959905 390 51 C390 34.17 390 17.34 390 0 C467.88 0 545.76 0 626 0 C626 16.83 626 33.66 626 51 C619.5340625 51.05607422 619.5340625 51.05607422 612.9375 51.11328125 C609.48350569 51.1514326 606.02957337 51.19250503 602.57563782 51.2355423 C598.93895603 51.28006016 595.30238565 51.31952401 591.66552734 51.34643555 C588.15749649 51.37259403 584.64988802 51.41308266 581.14212036 51.46318626 C579.16377354 51.48779887 577.18526287 51.49786723 575.20678711 51.50764465 C564.03486073 51.67087872 564.03486073 51.67087872 554.625 57.1875 C550.69755504 63.98500089 550.70937616 71.12652617 550.75195312 78.76245117 C550.749944 80.40421672 550.749944 80.40421672 550.74789429 82.07914925 C550.74766857 85.83802794 550.76390633 89.5966321 550.78125 93.35546875 C550.78475129 94.71732171 550.78785149 96.07917576 550.79057312 97.4410305 C550.88997553 144.51382221 551.71837838 191.58600416 552.39068604 238.65313721 C552.66254059 257.6872456 552.93080649 276.72140295 553.19290113 295.75564831 C553.27477391 301.68896401 553.35792455 307.62225539 553.44441223 313.55550575 C553.8693151 342.70587727 554.09694377 371.84644256 554 401 C544.41419361 401.13933715 534.8288169 401.2738722 525.2421875 401.34179688 C519.37357042 401.38357576 513.50572088 401.43289318 507.63769531 401.52807617 C502.90435911 401.60436965 498.17184632 401.64603905 493.4379425 401.6641407 C491.63579857 401.6770332 489.83369761 401.70221046 488.03190613 401.7401104 C472.13921598 402.06098378 472.13921598 402.06098378 466.99365234 397.60327148 C465.96122294 396.43174231 464.95771407 395.23335917 464 394 C463.13632813 393.22914063 462.27265625 392.45828125 461.3828125 391.6640625 C460.63773438 390.99117188 459.89265625 390.31828125 459.125 389.625 C458.28453125 388.86703125 457.4440625 388.1090625 456.578125 387.328125 C454.859375 385.77604167 453.140625 384.22395833 451.421875 382.671875 C446.99878599 378.68295423 442.55384995 374.72432093 438.0625 370.8125 C434.8248667 367.9673071 431.6331371 365.07146164 428.43359375 362.18359375 C426.32488854 360.29151315 424.20080199 358.42094242 422.0625 356.5625 C417.86835635 352.91062947 413.76905708 349.15733816 409.66015625 345.41015625 C406.80972966 342.82761116 403.92174108 340.29344897 401.01953125 337.76953125 C396.10263444 333.46130252 391.27360968 329.05313844 386.421875 324.671875 C381.99878599 320.68295423 377.55384995 316.72432093 373.0625 312.8125 C369.8248667 309.9673071 366.6331371 307.07146164 363.43359375 304.18359375 C361.32488854 302.29151315 359.20080199 300.42094242 357.0625 298.5625 C352.86835635 294.91062947 348.76905708 291.15733816 344.66015625 287.41015625 C341.80972966 284.82761116 338.92174108 282.29344897 336.01953125 279.76953125 C331.10263444 275.46130252 326.27360968 271.05313844 321.421875 266.671875 C316.99878599 262.68295423 312.55384995 258.72432093 308.0625 254.8125 C304.8248667 251.9673071 301.6331371 249.07146164 298.43359375 246.18359375 C296.32488854 244.29151315 294.20080199 242.42094242 292.0625 240.5625 C287.86835635 236.91062947 283.76905708 233.15733816 279.66015625 229.41015625 C276.80972966 226.82761116 273.92174108 224.29344897 271.01953125 221.76953125 C266.10263444 217.46130252 261.27360968 213.05313844 256.421875 208.671875 C251.99878599 204.68295423 247.55384995 200.72432093 243.0625 196.8125 C239.8248667 193.9673071 236.6331371 191.07146164 233.43359375 188.18359375 C231.32488854 186.29151315 229.20080199 184.42094242 227.0625 182.5625 C222.86835635 178.91062947 218.76905708 175.15733816 214.66015625 171.41015625 C211.80972966 168.82761116 208.92174108 166.29344897 206.01953125 163.76953125 C201.10263444 159.46130252 196.27360968 155.05313844 191.421875 150.671875 C186.99878599 146.68295423 182.55384995 142.72432093 178.0625 138.8125 C174.83802356 135.97886919 171.65913397 133.09495245 168.47265625 130.21875 C165.50447755 127.55536058 162.5058965 124.92866658 159.49609375 122.3125 C158.64347059 121.56450684 157.80201622 120.80201622 157 120 C156.97662102 146.53870074 156.95899626 173.07739993 156.94818783 199.61610889 C156.9430355 211.9389817 156.93601304 224.2618481 156.92456055 236.5847168 C156.91458124 247.32756816 156.90813884 258.07041488 156.90591151 268.81327075 C156.90460992 274.49945474 156.90155899 280.18562546 156.89426994 285.87180519 C156.8874585 291.22904825 156.88539345 296.58627262 156.88689232 301.94351959 C156.88661829 303.90460754 156.88464367 305.86569613 156.88079453 307.82678032 C155.96600609 327.16261063 155.96600609 327.16261063 162 345 C166.77768357 348.82214685 171.45573735 349.12439954 177.42089844 349.20532227 C178.72194519 349.22526749 180.02299194 349.24521271 181.36346436 349.26576233 C182.7787667 349.28274418 184.19407028 349.29962307 185.609375 349.31640625 C187.06097999 349.33698755 188.51257914 349.35798433 189.96417236 349.37937927 C193.77812972 349.43447851 197.59214007 349.48394115 201.40618896 349.53222656 C205.98596471 349.59138046 210.56564396 349.65754137 215.14533997 349.72252655 C222.09683419 349.82038318 229.04839134 349.90934362 236 350 C236 366.83 236 383.66 236 401 C159.77 401 83.54 401 5 401 C5 384.17 5 367.34 5 350 C9.26164062 349.96261719 13.52328125 349.92523438 17.9140625 349.88671875 C21.32177275 349.84858636 24.72941947 349.80751376 28.1370697 349.7644577 C31.72889054 349.71987877 35.32059692 349.68042705 38.91259766 349.65356445 C42.37523752 349.62746856 45.83744493 349.58702301 49.29981613 349.53681374 C51.25720168 349.51212068 53.21475477 349.50211639 55.17227173 349.49235535 C56.37306366 349.47256119 57.57385559 349.45276703 58.81103516 349.43237305 C59.86360504 349.42126999 60.91617493 349.41016693 62.00064087 349.39872742 C66.88470985 348.74945131 70.0967771 347.07884958 73.25 343.3125 C77.03876898 336.14090157 77.29150498 329.24838771 77.26069641 321.31057739 C77.26452196 320.25724114 77.26834751 319.20390489 77.27228898 318.11864936 C77.28257909 314.60134648 77.27863437 311.08420805 77.2746582 307.56689453 C77.27900687 305.04009857 77.28419054 302.51330392 77.29014587 299.98651123 C77.30214106 293.84270336 77.30468929 287.69895578 77.30234561 281.55513848 C77.30055983 276.55922389 77.30231765 271.56332253 77.30657005 266.56740952 C77.30716524 265.85533746 77.30776043 265.14326541 77.30837366 264.40961542 C77.30958546 262.962859 77.31079959 261.51610259 77.31201603 260.06934617 C77.32288321 246.51283946 77.32073299 232.95635763 77.31463119 219.39984952 C77.3094629 207.01075115 77.32071658 194.62173144 77.33972941 182.23264863 C77.35912339 169.49709988 77.36736106 156.76158831 77.36360615 144.0260247 C77.36169646 136.88176565 77.36415904 129.73757353 77.37832069 122.59332657 C77.39150526 115.87426034 77.38895332 109.15537677 77.37590981 102.43630219 C77.37354483 99.97328259 77.37627584 97.51025192 77.38453293 95.04724503 C77.3950084 91.67911135 77.38689271 88.31150487 77.3742218 84.94338989 C77.38528323 83.48947096 77.38528323 83.48947096 77.39656812 82.00617993 C77.32817765 73.33518646 75.94786421 64.97223606 69.8125 58.46875 C63.98612538 53.74737746 56.85344928 51.91278474 49.49707031 51.79467773 C47.84581146 51.7647599 47.84581146 51.7647599 46.16119385 51.73423767 C44.97878113 51.71752518 43.79636841 51.70081268 42.578125 51.68359375 C41.36300232 51.66281265 40.14787964 51.64203156 38.89593506 51.62062073 C35.01401427 51.55523172 31.1320258 51.49628949 27.25 51.4375 C24.61848258 51.39430468 21.98697201 51.35069006 19.35546875 51.30664062 C12.9037142 51.19877217 6.45190833 51.09961882 0 51 C0 34.17 0 17.34 0 0 Z " fill="#0E0E0E" transform="translate(1273,25)"/>
<path d="M0 0 C1.34367748 0.00475035 2.6873564 0.00910987 4.03103638 0.01309204 C23.73740861 0.08071595 43.16040618 0.5467859 62.6875 3.375 C63.92193848 3.54660645 65.15637695 3.71821289 66.42822266 3.89501953 C123.21380848 11.97218625 176.4446141 31.75058572 221.6875 67.375 C222.24356934 67.81247559 222.79963867 68.24995117 223.37255859 68.70068359 C266.35290781 102.91006571 291.19294475 150.42742097 298.08984375 204.53125 C303.48626588 257.16484671 286.98743206 311.46398389 253.6875 352.375 C251.40557328 355.04315344 249.08443767 357.65020107 246.69140625 360.21875 C244.82967233 362.22201924 243.0701884 364.28073297 241.3125 366.375 C190.51107566 424.23539219 101.67338596 445.7316012 28.20703125 450.9453125 C18.25044319 451.56679949 8.28504188 451.5740313 -1.6875 451.5625 C-3.14181931 451.56159363 -3.14181931 451.56159363 -4.6255188 451.56066895 C-19.9428145 451.53482681 -35.08226641 451.14444782 -50.3125 449.375 C-51.4454248 449.24609375 -52.57834961 449.1171875 -53.74560547 448.984375 C-115.30369225 441.75897261 -178.64803695 422.12287756 -227.3125 382.375 C-227.82409668 381.96491699 -228.33569336 381.55483398 -228.86279297 381.13232422 C-269.88064004 348.19819336 -296.41595792 301.758176 -302.5625 249.3125 C-307.85653156 196.9830342 -294.28251137 144.00203399 -261.36328125 102.59765625 C-258.77054128 99.43768305 -256.05666241 96.40416444 -253.3125 93.375 C-252.43342579 92.36586203 -251.5558312 91.35543332 -250.6796875 90.34375 C-221.65358881 57.23036788 -179.28715752 36.43956 -138.3125 22.375 C-137.41289551 22.06369141 -136.51329102 21.75238281 -135.58642578 21.43164062 C-115.46078025 14.54316936 -94.81582424 9.33792228 -73.875 5.625 C-72.84366943 5.43856934 -71.81233887 5.25213867 -70.74975586 5.06005859 C-47.26583559 1.12104827 -23.77974759 -0.14748203 0 0 Z M-128.3125 107.375 C-129.59060547 108.55835937 -129.59060547 108.55835937 -130.89453125 109.765625 C-150.05697193 127.99257645 -162.28839294 152.64045904 -169.125 177.9375 C-169.30772461 178.60692627 -169.49044922 179.27635254 -169.67871094 179.96606445 C-173.51833556 195.23052408 -174.8656144 210.49260982 -174.75 226.1875 C-174.74729095 227.05697266 -174.74458191 227.92644531 -174.74179077 228.82226562 C-174.67811678 242.33664337 -173.88098183 255.27407282 -170.3125 268.375 C-170.12526367 269.08865723 -169.93802734 269.80231445 -169.74511719 270.53759766 C-168.48459637 275.23461608 -166.98429476 279.80949306 -165.3125 284.375 C-165.07192871 285.04273438 -164.83135742 285.71046875 -164.58349609 286.3984375 C-150.57179462 324.6039772 -122.13437131 355.91714907 -85.38378906 373.43066406 C-41.82475581 393.28996871 8.76990416 397.39845504 54.6875 383.375 C55.41050293 383.15473145 56.13350586 382.93446289 56.87841797 382.70751953 C78.69875011 375.88029905 98.29923145 365.21650195 115.6875 350.375 C116.49445313 349.69050781 117.30140625 349.00601562 118.1328125 348.30078125 C150.27280287 320.24125988 167.13757293 281.6099138 170.375 239.50390625 C172.62353524 205.42454399 166.19712977 171.4162834 149.6875 141.375 C149.13449219 140.33214844 148.58148437 139.28929687 148.01171875 138.21484375 C128.12120707 102.18406005 91.88072183 78.45357255 53.1796875 66.91015625 C-9.40620816 49.02063718 -80.77681097 61.49676178 -128.3125 107.375 Z " fill="#0E0E0E" transform="translate(914.3125,-0.375)"/>
<path d="M0 0 C91.41 0 182.82 0 277 0 C277 16.83 277 33.66 277 51 C258.25 51.25 258.25 51.25 252.34863281 51.29785156 C250.80009999 51.3272241 249.25159377 51.3580504 247.703125 51.390625 C246.90310059 51.39175293 246.10307617 51.39288086 245.27880859 51.39404297 C241.66293572 51.48699017 239.43453566 51.68667956 236.46191406 53.83007812 C234.70222882 56.02430763 234.70222882 56.02430763 234.90625 59.328125 C236.26008151 63.8731308 238.31255803 66.33734513 241.5 69.75 C242.60392441 70.98212419 243.70677999 72.21520678 244.80859375 73.44921875 C245.35370605 74.05169434 245.89881836 74.65416992 246.46044922 75.27490234 C248.57296259 77.64201613 250.57064929 80.09347271 252.5625 82.5625 C255.82778303 86.58358091 259.14557844 90.55345162 262.5 94.5 C266.62107792 99.34954051 270.66991483 104.25160964 274.6875 109.1875 C277.26146392 112.31799666 279.87569086 115.41172461 282.5 118.5 C286.62101634 123.34959381 290.66991354 128.25160806 294.6875 133.1875 C297.7243277 136.8809391 300.81960955 140.52298486 303.91625977 144.16625977 C306.7954532 147.55954109 309.63204237 150.98267786 312.4375 154.4375 C316.53662447 159.47972014 320.75648241 164.41079406 325.01538086 169.31811523 C327.17045097 171.81145851 329.16925623 174.25388434 331 177 C334.68497012 175.77167663 335.49950808 174.41383683 337.875 171.375 C341.59042533 166.72018026 345.39781524 162.17594363 349.3125 157.6875 C350.43238641 156.40112414 351.55217754 155.11466533 352.671875 153.828125 C353.22681641 153.19068359 353.78175781 152.55324219 354.35351562 151.89648438 C356.93637383 148.92144841 359.50060432 145.93058917 362.0625 142.9375 C362.55266602 142.36483398 363.04283203 141.79216797 363.54785156 141.20214844 C364.5358886 140.04759562 365.52384448 138.89297334 366.51171875 137.73828125 C368.01672049 135.98047082 369.52367703 134.22435554 371.03125 132.46875 C376.32851866 126.29868921 381.60670279 120.11357478 386.85131836 113.89868164 C390.25329123 109.87117093 393.68610508 105.87099481 397.125 101.875 C400.61819482 97.8137519 404.06448551 93.72481221 407.4375 89.5625 C411.67117304 84.34407151 416.06152209 79.27132803 420.48413086 74.21313477 C427.13883371 67.5049196 427.13883371 67.5049196 430 59 C428.42042918 54.70200702 428.42042918 54.70200702 425 52 C422.08534925 51.84280997 419.1904253 51.74136847 416.2734375 51.68359375 C415.50878174 51.66494263 414.74412598 51.6462915 413.95629883 51.6270752 C411.09598503 51.55870285 408.23547835 51.49860181 405.375 51.4375 C398.98125 51.293125 392.5875 51.14875 386 51 C386 34.17 386 17.34 386 0 C460.91 0 535.82 0 613 0 C613 16.83 613 33.66 613 51 C606.46058594 51.05607422 606.46058594 51.05607422 599.7890625 51.11328125 C596.2887841 51.15145107 592.78856621 51.19252331 589.28834534 51.2355423 C585.6068026 51.28000075 581.92536834 51.31947608 578.24365234 51.34643555 C574.69023031 51.37265531 571.13722096 51.4131852 567.58405685 51.46318626 C565.58474883 51.48772061 563.58528052 51.49785115 561.58584595 51.50764465 C546.82957327 51.74309861 537.15411443 55.66401132 526.73046875 66.25 C520.93980508 72.31753505 515.54846513 78.67522064 510.30859375 85.22265625 C507.64720542 88.42442799 504.84537754 91.46234918 502 94.5 C498.35111551 98.39576281 494.84301562 102.33334284 491.5 106.5 C487.16072656 111.90436782 482.49603585 116.94955123 477.7734375 122.015625 C473.46894486 126.63353761 469.35687595 131.40761607 465.26171875 136.2109375 C464.23716908 137.41162041 463.21242354 138.61213621 462.1875 139.8125 C461.67018311 140.41868164 461.15286621 141.02486328 460.61987305 141.64941406 C457.41497771 145.3907082 454.14790722 149.06115383 450.8125 152.6875 C447.62263156 156.16136309 444.57951106 159.69910025 441.625 163.375 C437.75781137 168.1714071 433.65019284 172.6704146 429.44189453 177.16357422 C426.32460664 180.51081785 423.36433518 183.92995906 420.5 187.5 C416.16072656 192.90436782 411.49603585 197.94955123 406.7734375 203.015625 C402.46894486 207.63353761 398.35687595 212.40761607 394.26171875 217.2109375 C393.23718054 218.41163019 392.21243495 219.61214596 391.1875 220.8125 C390.67380859 221.41433105 390.16011719 222.01616211 389.63085938 222.63623047 C385.56658704 227.3800063 381.39707148 232.01050102 377.15625 236.59765625 C371.45202282 242.95290936 369.8498549 246.68885571 369.85473633 255.19995117 C369.85137772 256.03609955 369.8480191 256.87224792 369.84455872 257.73373413 C369.83504527 260.50349405 369.83310512 263.2731935 369.83203125 266.04296875 C369.82881791 267.97007777 369.82545378 269.89718654 369.82194519 271.82429504 C369.81595221 275.86862757 369.81410536 279.91293873 369.81469727 283.95727539 C369.81479866 289.12764421 369.80117058 294.297875 369.78392506 299.46821117 C369.7727769 303.45146813 369.77077896 307.43469207 369.77130699 311.41796303 C369.77013019 313.32325019 369.76572533 315.22853829 369.75797462 317.13381004 C369.74812205 319.80699527 369.75107395 322.47988568 369.75708008 325.15307617 C369.75146057 325.93311508 369.74584106 326.71315399 369.74005127 327.51683044 C369.77590171 333.83046769 370.24274604 339.75461994 374.25 344.875 C379.02541989 348.56509719 383.62478656 349.24851526 389.55615234 349.31884766 C390.83702728 349.33871735 392.11790222 349.35858704 393.43759155 349.37905884 C394.82037178 349.39093252 396.20315384 349.40259553 397.5859375 349.4140625 C399.01226909 349.43278979 400.43858979 349.45236435 401.86489868 349.4727478 C405.60318556 349.52391041 409.3415083 349.56362055 413.07995605 349.60089111 C417.57389292 349.64809884 422.06765409 349.70962816 426.56144714 349.76873779 C433.37422655 349.85675648 440.18697559 349.92665866 447 350 C447 366.83 447 383.66 447 401 C355.92 401 264.84 401 171 401 C171 384.17 171 367.34 171 350 C175.3828125 349.97421875 179.765625 349.9484375 184.28125 349.921875 C187.79260398 349.89016326 191.30386915 349.85451111 194.81515503 349.81620789 C198.51253066 349.77694931 202.20966856 349.74451225 205.90722656 349.72900391 C209.47369583 349.71377536 213.03951781 349.67922247 216.60569763 349.63169098 C218.61728038 349.6097991 220.62904608 349.6075316 222.64074707 349.60565186 C229.86746487 349.49079493 234.89898382 349.000212 241 345 C245.34102869 339.53870584 245.16533277 333.33836479 245.25634766 326.62060547 C245.27095032 325.78898392 245.28555298 324.95736237 245.30059814 324.10054016 C245.4264499 316.44399974 245.49534834 308.78646072 245.54844093 301.12910271 C245.58418072 295.99382405 245.63746556 290.86011473 245.73388672 285.72558594 C245.82708391 280.74646642 245.87541998 275.76873397 245.89283371 270.78879166 C245.90685972 268.89976183 245.93634377 267.01077641 245.98213577 265.1222496 C246.37188269 252.38787025 246.37188269 252.38787025 240.61474609 241.44775391 C239.11358996 239.92762348 237.57974086 238.43829241 236 237 C235.07168466 235.97922335 234.1524576 234.94995715 233.25 233.90625 C232.5075 233.1121875 231.765 232.318125 231 231.5 C227.74492917 227.9644923 224.63363119 224.37221213 221.625 220.625 C217.23655873 215.18613395 212.53553588 210.09271096 207.7734375 204.984375 C203.48018201 200.37851774 199.37670578 195.6189993 195.296875 190.82421875 C194.28156606 189.63254314 193.26593033 188.4411459 192.25 187.25 C191.73526123 186.64639648 191.22052246 186.04279297 190.69018555 185.42089844 C187.30910646 181.47534169 183.84905793 177.61889068 180.3125 173.8125 C176.94416553 170.18716792 173.7207798 166.48767607 170.625 162.625 C166.01428361 156.89477513 161.02243362 151.56914922 155.99609375 146.20703125 C151.61883286 141.5360668 147.4485711 136.70252459 143.30078125 131.828125 C137.46981787 124.98481521 131.54591666 118.26016783 125.4453125 111.65625 C121.28495473 107.13701153 117.27314465 102.49821391 113.29296875 97.8203125 C107.89793674 91.48647799 102.45960709 85.216936 96.79174805 79.12475586 C94.28244119 76.42435039 91.89334842 73.66694481 89.5625 70.8125 C81.13014992 61.17552848 69.67667356 54.15557941 57 52 C55.06859833 51.88949016 53.13427883 51.82470056 51.19995117 51.79467773 C50.05914597 51.77473251 48.91834076 51.75478729 47.7429657 51.73423767 C46.52196671 51.71752518 45.30096771 51.70081268 44.04296875 51.68359375 C42.78486893 51.66281265 41.5267691 51.64203156 40.23054504 51.62062073 C36.89827714 51.56639535 33.56599761 51.51612055 30.23364258 51.46777344 C26.82823454 51.41738916 23.42291093 51.36184186 20.01757812 51.30664062 C13.34511748 51.19885629 6.67260685 51.09965444 0 51 C0 34.17 0 17.34 0 0 Z " fill="#0E0E0E" transform="translate(1947,25)"/>
</svg>
